<?xml version="1.0" encoding="UTF-8"?>
<svg id="Capa_1" data-name="Capa 1" xmlns="http://www.w3.org/2000/svg" viewBox="0 0 23.3 24">
  <defs>
    <style>
      .cls-1 {
        fill: #111;
        stroke-width: 0px;
      }
    </style>
  </defs>
  <path class="cls-1" d="M0,11.99c0-3.37,0-6.73,0-10.1C0,1.13.41.66.86.48c.18-.07.38-.11.58-.11,5.65,0,11.3,0,16.95,0,.87,0,1.47.6,1.47,1.46,0,6.76,0,13.52,0,20.29,0,.95-.57,1.51-1.52,1.51-5.62,0-11.23,0-16.85,0-.93,0-1.49-.56-1.49-1.48,0-3.39,0-6.77,0-10.16ZM.53,11.99c0,3.35,0,6.7,0,10.05,0,.62.35,1.07,1.09,1.07,5.56-.02,11.12-.01,16.69,0,.68,0,1.05-.39,1.04-1.05-.01-3.01,0-6.02,0-9.03,0-3.7,0-7.4,0-11.09,0-.7-.33-1.03-1.01-1.03-5.59,0-11.18,0-16.77,0-.63,0-1.05.42-1.04,1.04.02,3.35,0,6.7,0,10.05Z"/>
  <path class="cls-1" d="M20.2,11c0-3.17,0-6.34,0-9.51,0-.62.32-1.07.88-1.33,1.01-.48,2.16.21,2.22,1.33,0,.12,0,.23,0,.35,0,6.07,0,12.15,0,18.22,0,.42-.05.81-.22,1.19-.38.83-.65,1.71-1.07,2.53-.06.12-.11.23-.26.22-.15,0-.21-.1-.27-.22-.49-.96-.82-1.99-1.25-2.97-.05-.11-.03-.23-.03-.34,0-3.15,0-6.31,0-9.46h0ZM22.76,12.23h0c0-2.63,0-5.26,0-7.88,0-.23-.06-.31-.3-.3-.49.02-.97.02-1.46,0-.23,0-.28.07-.28.29,0,1.7,0,3.4,0,5.1,0,3.56,0,7.13,0,10.69,0,.22.05.29.28.29.5-.02.99-.02,1.49,0,.21,0,.27-.06.27-.27,0-2.64,0-5.27,0-7.91ZM22.76,2.41c0-.31.01-.62,0-.93-.02-.51-.46-.9-.96-.95-.45-.04-1.06.38-1.06.88,0,.65,0,1.3-.01,1.95,0,.13.05.17.18.17.56,0,1.12,0,1.67,0,.14,0,.19-.05.19-.19,0-.31,0-.62,0-.93ZM21.71,23.04s.04,0,.07,0c.27-.66.54-1.33.8-1.99.05-.13-.04-.13-.13-.13-.48,0-.95,0-1.43,0-.13,0-.16.04-.12.16.27.65.53,1.31.8,1.96Z"/>
  <path class="cls-1" d="M15.15,10.13c-.16.03-.36-.14-.49-.07-.14.07-.09.32-.19.48-.24.38-.65.55-1.17.48-.1-.01-.2-.08-.24.1-.13.63-.54.93-1.18.87-.18-.02-.24.02-.28.19-.2.74-.94,1.04-1.62.66-.08-.04-.16-.08-.23-.14-.27-.2-.48-.27-.82-.02-.49.37-1.18.12-1.44-.44-.06-.14-.13-.17-.28-.16-.45.05-.82-.16-1.03-.58-.07-.14-.13-.19-.3-.17-.46.05-.86-.18-1.03-.61-.05-.13-.11-.16-.24-.14-.44.06-.79-.1-1.01-.47-.21-.36-.19-.73.03-1.09.12-.19.22-.39.34-.58.1-.15.06-.23-.09-.31-.47-.26-.94-.53-1.4-.79-.28-.16-.3-.26-.14-.54.75-1.28,1.49-2.56,2.24-3.83.14-.25.3-.29.58-.16.16.07.31.18.48.24.58.19,1.08.02,1.54-.33.14-.11.29-.21.44-.3.42-.26.85-.25,1.28,0,.1.06.17.1.29.04.96-.53,1.94-.43,2.91-.03.26.11.51.23.74.39.7.48,1.34.36,2.02-.11.05-.04.1-.08.15-.12.26-.2.39-.17.54.13.67,1.36,1.33,2.72,1.99,4.08.16.32.11.42-.24.52-.48.14-.87.41-1.18.81-.11.14-.15.26-.04.45.4.72-.09,1.56-.93,1.57ZM9.02,9.65c.06.08-.14.24.06.3.43.12.79.38,1.17.6.5.27.99.56,1.48.84.3.16.62.08.77-.19.14-.24.04-.54-.23-.71-.15-.09-.31-.18-.46-.27-.47-.27-.95-.54-1.42-.81-.15-.09-.24-.2-.15-.37.1-.19.26-.16.42-.09.04.02.08.05.12.07.82.47,1.63.93,2.45,1.4.32.18.64.12.8-.15.16-.28.07-.56-.26-.75-.58-.34-1.17-.67-1.75-1-.17-.1-.36-.2-.23-.43.13-.23.31-.13.49-.03.35.2.7.4,1.05.6.52.3,1.04.6,1.57.89.27.15.53.1.7-.11.16-.19.16-.48,0-.66-.08-.09-.2-.15-.31-.21-1.93-1.1-3.86-2.2-5.79-3.31-.13-.08-.22-.06-.34.02-.36.23-.75.42-1.17.54-.41.11-.83.17-1.23-.05-.61-.31-.66-.91-.12-1.32.58-.44,1.14-.89,1.71-1.35.08-.06.27-.1.19-.24-.06-.11-.22-.08-.35-.07-.04,0-.09.02-.13.03-.31.07-.51.32-.75.49-.67.47-1.39.5-2.12.14-.14-.07-.2-.06-.28.07-.64,1.1-1.28,2.2-1.93,3.3-.08.13-.05.2.07.27.4.22.8.45,1.19.68.09.05.15.05.24,0,.56-.37.97-.33,1.47.14.07.07.12.1.2.03.14-.13.31-.14.49-.17.46-.08,1.03.21,1.11.64.03.13.09.18.24.18.67,0,1.07.44,1.04,1.11ZM10.47,2.61c-.43-.01-.92.17-1.36.52-.72.58-1.45,1.14-2.17,1.71-.23.18-.21.29.05.43.22.11.46.09.69.04.38-.08.76-.21,1.05-.45.44-.37.79-.23,1.22.02,1.79,1.04,3.59,2.05,5.39,3.08.13.07.2.1.3-.06.27-.43.65-.76,1.13-.95.16-.06.2-.14.12-.32-.54-1.08-1.07-2.16-1.59-3.25-.1-.2-.16-.23-.37-.11-.78.45-1.56.5-2.36-.02-.59-.39-1.24-.65-2.11-.65ZM7.26,8.72c0-.28-.13-.45-.35-.52-.24-.08-.44.03-.57.24-.32.53-.63,1.06-.93,1.59-.16.28-.1.56.14.7.26.16.52.09.7-.22.32-.53.63-1.06.94-1.59.05-.08.08-.16.08-.22ZM7.15,11.57c.14,0,.28-.07.36-.21.32-.53.64-1.07.95-1.61.13-.22.02-.48-.21-.62-.2-.12-.49-.08-.62.13-.33.55-.66,1.1-.96,1.66-.15.28.13.65.49.64ZM5.62,8.48c-.01-.23-.13-.38-.35-.45-.25-.08-.44.02-.57.23-.21.33-.4.67-.59,1.01-.17.3-.12.59.14.74.26.15.52.07.7-.24.21-.34.4-.69.61-1.03.05-.08.06-.17.07-.26ZM8.92,10.48c-.15-.01-.28.05-.36.18-.21.33-.42.66-.59,1.01-.11.22,0,.47.23.58.23.12.48.07.62-.14.2-.31.39-.63.56-.97.16-.31-.09-.66-.45-.66ZM11.1,11.94c.01-.17-.06-.31-.2-.4-.26-.17-.54-.32-.81-.48-.07-.04-.13-.05-.14.04-.04.28-.22.5-.34.75-.04.09-.04.14.05.19.24.12.46.27.71.38.35.16.73-.09.73-.48Z"/>
  <path class="cls-1" d="M9.92,19.01c2.4,0,4.79,0,7.19,0,.07,0,.14,0,.22,0,.14.02.23.1.25.24.02.15-.08.23-.21.27-.08.02-.16.02-.24.02-4.8,0-9.61,0-14.41,0-.06,0-.13,0-.19,0-.15-.03-.25-.11-.25-.27,0-.16.1-.24.26-.25.06,0,.13,0,.19,0,2.4,0,4.79,0,7.19,0Z"/>
  <path class="cls-1" d="M9.93,21.92c-2.4,0-4.79,0-7.19,0-.06,0-.13,0-.19,0-.16,0-.25-.1-.26-.25-.01-.15.09-.23.22-.26.08-.02.16-.01.24-.01,4.79,0,9.59,0,14.38,0,.07,0,.15-.01.21,0,.13.04.25.12.24.28-.02.15-.12.24-.27.24-.07,0-.14,0-.22,0-2.39,0-4.78,0-7.16,0Z"/>
  <path class="cls-1" d="M9.94,14.74c-2.38,0-4.76,0-7.14,0-.09,0-.18,0-.27,0-.17,0-.23-.12-.24-.26-.01-.15.08-.23.23-.24.08,0,.16,0,.24,0,4.77,0,9.54,0,14.3,0,.1,0,.2,0,.3,0,.16.01.22.12.22.25,0,.12-.07.22-.21.24-.09.01-.18,0-.27,0-2.39,0-4.78,0-7.17,0Z"/>
  <path class="cls-1" d="M9.92,17.14c-2.39,0-4.78,0-7.16,0-.2,0-.46.04-.47-.26,0-.31.25-.26.46-.26,4.74,0,9.48,0,14.22,0,.23,0,.55-.13.61.25.03.2-.12.27-.6.27-2.35,0-4.7,0-7.05,0Z"/>
</svg>