<?xml version="1.0" encoding="UTF-8"?>
<svg id="Capa_1" data-name="Capa 1" xmlns="http://www.w3.org/2000/svg" xmlns:xlink="http://www.w3.org/1999/xlink" viewBox="0 0 24 24">
  <defs>
    <style>
      .cls-1 {
        fill: #023f6d;
      }

      .cls-1, .cls-2 {
        stroke-width: 0px;
      }

      .cls-2 {
        fill: none;
      }

      .cls-3 {
        clip-path: url(#clippath);
      }
    </style>
    <clipPath id="clippath">
      <rect class="cls-2" x="3.71" width="16.58" height="24.06"/>
    </clipPath>
  </defs>
  <g class="cls-3">
    <path class="cls-1" d="M20.2,6.54c0-3.4-3.35-6.17-6.93-6.17-3.58,0-6.93,2.76-6.93,6.17h13.86"/>
    <path class="cls-1" d="M6.8,16.35l3.15-.97,1.63,5.56v2.74h-3.42s-.26-6.79-1.36-7.32"/>
    <path class="cls-1" d="M18.43,17.62l-2.64-2.24-1.63,5.56v2.74h3.68s-.51-5.52.59-6.05"/>
    <path class="cls-1" d="M17,8.06v1.86c0,.87-.13,1.7-.56,2.48-1.11,2.01-3.64,2.92-5.89,2.2-1.69-.54-2.9-1.98-3.2-3.63-.09-.5-.06-1.02-.06-1.53v-1.39c0-.48-.79-.48-.79,0v1.86c0,.92.14,1.78.54,2.62,1.03,2.13,3.52,3.34,5.93,3,2.13-.3,3.9-1.77,4.56-3.71.23-.69.25-1.4.25-2.11v-1.66c0-.48-.79-.48-.79,0"/>
    <path class="cls-1" d="M5.64,6.54c.02-2.32,1.67-4.28,3.82-5.23,2.24-.99,4.84-.61,6.8.78,1.47,1.04,2.44,2.7,2.45,4.45,0,.48.79.48.79,0-.02-2.38-1.55-4.48-3.69-5.63-2.22-1.19-4.89-1.18-7.13-.07-2.21,1.1-3.81,3.28-3.82,5.69,0,.48.79.48.79,0"/>
    <path class="cls-1" d="M4.09,7.2h15.82c.51,0,.51-.75,0-.75H4.09c-.51,0-.51.75,0,.75"/>
    <path class="cls-1" d="M9.99.66v2.32c0,.48.79.48.79,0V.66c0-.48-.79-.48-.79,0"/>
    <path class="cls-1" d="M13.51.66v2.32c0,.48.79.48.79,0V.66c0-.48-.79-.48-.79,0"/>
    <path class="cls-1" d="M13.26,5.15c-.01.59-.5,1.05-1.12,1.06-.62.01-1.1-.49-1.12-1.06-.01-.59.52-1.05,1.12-1.06.62-.01,1.1.49,1.12,1.06.01.48.8.48.79,0-.03-1-.85-1.79-1.91-1.81-1.05-.02-1.88.84-1.91,1.81-.03,1,.89,1.79,1.91,1.81,1.06.02,1.88-.84,1.91-1.81.01-.48-.78-.48-.79,0"/>
    <path class="cls-1" d="M4.92,21.59c.01-2.21,1.05-4.56,3.21-5.59.66-.32,1.37-.39,2.1-.39h2.32c.53,0,1.07,0,1.61,0,1.05,0,2.04.44,2.82,1.1.87.74,1.46,1.73,1.79,2.78.28.87.32,1.75.32,2.65v1.5l.39-.38H4.52l.39.38v-2.05c0-.48-.79-.48-.79,0,0,.68,0,1.37,0,2.05,0,.2.18.38.39.38h14.95c.22,0,.39-.17.39-.38,0-1.63.09-3.26-.51-4.82-.8-2.06-2.62-3.8-5.01-3.95-.55-.03-1.1,0-1.65,0h-2.38c-.74,0-1.45.06-2.15.31-1.08.39-1.95,1.12-2.62,2-.97,1.27-1.42,2.87-1.42,4.42,0,.48.79.48.79,0"/>
    <path class="cls-1" d="M8.65,15.47c.33,1.13.67,2.26,1,3.4.18.62.37,1.25.55,1.87.02.07.04.14.06.21.02.08,0,.12,0-.02v2.73l.39-.38h-3.42l.39.38c0-1.26-.03-2.53-.17-3.78-.08-.67-.17-1.35-.39-2-.14-.4-.4-1.07-.95-1.08h0c.11.19.23.38.34.56.43-.92,1.6-1.46,2.67-1.63.5-.08.29-.8-.21-.72-.9.14-1.75.5-2.42,1.09-.28.24-.56.55-.72.89-.11.24.01.58.34.56.03,0-.15-.03-.06,0-.12-.04-.09-.04-.04,0,.06.04-.09-.08,0,0,.01.01.03.03.04.04.06.07-.06-.08-.01-.02.03.04.06.09.09.14.02.04.12.24.07.12.04.09.08.19.11.29.2.59.29,1.22.36,1.83.14,1.24.17,2.49.17,3.73,0,.2.18.38.39.38h3.42c.22,0,.39-.17.39-.38v-1.78c0-.39.06-.81-.05-1.19-.39-1.33-.78-2.66-1.17-3.98-.14-.48-.28-.96-.42-1.44-.14-.47-.9-.27-.76.2"/>
    <path class="cls-1" d="M14.54,15.28l-1,3.4c-.18.62-.37,1.25-.55,1.87-.1.34-.1.63-.1.98v2.14c0,.2.18.38.39.38h3.42c.22,0,.39-.17.39-.38,0-1.23.03-2.45.16-3.67.07-.63.16-1.27.37-1.89.03-.09.06-.18.1-.27.03-.07-.04.08,0,.02,0-.02.02-.03.02-.05.02-.03.03-.06.05-.09.03-.05.06-.1.09-.14.06-.08-.06.07-.01.01.01-.01.03-.03.04-.04.09-.08-.03.01,0,0,.04-.03.13-.06-.04,0,.09-.03-.07,0-.05,0,.33.02.45-.33.34-.56-.15-.32-.42-.61-.68-.86-.67-.62-1.55-.98-2.46-1.12-.5-.08-.71.65-.21.72,1.07.16,2.24.71,2.67,1.63.11-.19.23-.38.34-.56-.49-.03-.77.61-.9.95-.23.58-.32,1.21-.4,1.82-.16,1.17-.2,2.35-.21,3.53,0,.19,0,.38,0,.57l.39-.38h-3.42l.39.38v-2.66c0-.14-.01.02-.01.01.02-.05.03-.1.04-.15.4-1.35.79-2.69,1.19-4.04.13-.45.27-.9.4-1.36.14-.47-.62-.66-.76-.2"/>
  </g>
</svg>