<?xml version="1.0" encoding="UTF-8"?>
<svg id="Capa_2" data-name="Capa 2" xmlns="http://www.w3.org/2000/svg" viewBox="0 0 1090.49 403.52">
  <defs>
    <style>
      .cls-1 {
        stroke-width: 4px;
      }

      .cls-1, .cls-2 {
        fill: none;
        stroke: #fff;
        stroke-miterlimit: 10;
      }

      .cls-3 {
        font-size: 27.54px;
      }

      .cls-3, .cls-4 {
        font-family: CaslonBT-Bold, 'Caslon Bold BT';
        font-weight: 700;
      }

      .cls-3, .cls-4, .cls-5 {
        fill: #fff;
      }

      .cls-6 {
        letter-spacing: -.1em;
      }

      .cls-7 {
        letter-spacing: -.1em;
      }

      .cls-8 {
        letter-spacing: -.02em;
      }

      .cls-4 {
        font-size: 48px;
      }

      .cls-5 {
        stroke-width: 0px;
      }

      .cls-2 {
        stroke-width: 1.5px;
      }
    </style>
  </defs>
  <g id="Capa_1-2" data-name="Capa 1">
    <g>
      <g>
        <path class="cls-1" d="M36.46,381.22h106.34c-7.58-7.67-59.48-62.08-51.63-141.82,6.32-64.16,48.92-120.36,110.41-146.47"/>
        <path class="cls-1" d="M0,401.5h123.02c-8.77-8.87-68.82-71.82-59.74-164.07,7.31-74.23,56.6-139.24,127.73-169.45"/>
      </g>
      <g>
        <path class="cls-1" d="M502,381.22h-106.34c7.58-7.67,59.48-62.08,51.63-141.82-6.32-64.16-48.92-120.36-110.41-146.47"/>
        <path class="cls-1" d="M538.46,401.5h-123.02c8.77-8.87,68.82-71.82,59.74-164.07-7.31-74.23-56.6-139.24-127.73-169.45"/>
      </g>
      <path class="cls-5" d="M270.33,380.21h83.73c.59,0,1.06-.49,1.06-1.09v-6.43c.26-1.24-.11-2.42-.92-2.96-.41-.28-.85-.33-1.16-.33h-18.77c-.58,0-1.06-.48-1.06-1.08l-.04-4.33c0-.57-.42-1.04-.97-1.08-5.94-.45-20.15-2.11-33.41-9.35h0c-.88-.91-1.67-1.29-2.59-1.86-.58-.36-.35-.26-1.43-.99-1.29-.87-2.25-1.43-2.57-1.62-1.78-1.08-2.51-2.06-7.33-6.43-.92-.84-1.39-1.26-1.7-1.53-1.19-1.04-3.23-2.73-5.3-4.88-.59-.61-1.19-1.27-1.11-2.06.05-.5.34-.67.83-1.43.53-.81,1.16-1.8,1.11-2.87-.04-.8-.46-1.47-1.21-2.64-.5-.79-.8-1.05-.8-1.57,0-.54.31-1.02.67-1.38.2-.2.3-.47.3-.76,0-43.08,0-86.15,0-129.23,0-.42-.24-.8-.61-.98-.89-.42-1.51-1.3-1.59-2.31-.1-1.23.63-2.4,1.76-2.85.17-.07.33-.17.45-.31.36-.43.93-1.27,1.07-2.47.23-2.05-1.01-3.48-1.21-3.69-1.18-.21-1.97-1.3-1.85-2.39.08-.71.53-1.34,1.17-1.67.36-.19.59-.55.6-.96l.04-5.95c0-.59.46-1.08,1.04-1.08,1.33-.02,3.15,0,5.28.12,8.47.5,14.85,2.56,20.95,4.54,5.5,1.79,9.53,3.5,13.06,5,3.39,1.44,7.6,3.11,12.78,5.98,9.25,5.13,12.15,6.66,17.94,9.71.48.25,1.59.83,3.15,1.31,0,0,1.65.5,3.48.68.71.07,1.4.11,2.08.13,10.09.23,15.91-5.29,15.91-5.29,6.68-6.34,8.62-18.5,2.88-27.15-3.76-5.67-11.32-10.58-19.47-8.62-7.17,1.72-13.55,8.45-13.55,16.07,0,5.99,3.95,10.01,4.43,10.49.33.32,5.49,5.25,12.15,3.89,1.26-.26,4.38-.89,6.4-3.72,2.13-2.97,2.85-8.09.08-10.91-2.4-2.45-6.53-2.26-6.66-1.82-.06.21.69.63,1.4.98.16.11,2.64,1.86,2.55,4.82-.08,2.43-1.84,4.15-3.37,4.82-3.41,1.49-8.19-1.17-9.41-5.04-.96-3.04.6-5.77.87-6.25,2.2-3.86,6.61-4.39,7.1-4.44,5.58-.57,12.31,4.39,12.73,11.16.4,6.39-5.05,10.92-9.2,12.43-.38.14-4.81,1.68-9.36-.08-1.6-.62-2.03-1.2-5.93-3.72-2.74-1.78-4.19-2.57-6.29-3.83-8.05-4.84-14.21-9.67-22.81-14.79-7.48-4.46-12.2-7.28-19.12-9.45-8.36-2.62-15.69-2.98-20.6-2.86.89-.58,1.57-1.25,2.1-1.96,6.81-9.22-8.69-31.16-9.79-32.68"/>
      <path class="cls-5" d="M320.56,315.44c1.75,2.09,14.16,16.38,34.73,16.3,20.38-.08,32.63-14.21,34.4-16.33l-65.98.03h-3.15Z"/>
      <path class="cls-5" d="M355.12,222.73l-31.41,92.71h-3.15s33.5-98.1,33.5-98.1h1.55v98.07c-.16-30.87-.33-61.75-.49-92.62v-.06Z"/>
      <ellipse class="cls-2" cx="355.22" cy="213.14" rx="4.17" ry="4.3"/>
      <path class="cls-5" d="M355.14,222.73l31.41,92.71h3.15s-33.5-98.1-33.5-98.1h-1.55v98.07c.16-30.87.33-61.75.49-92.62v-.06Z"/>
      <path class="cls-5" d="M355.13,199.91c0,.11-.04.23-.11.32-.63.78-1.19,1.36-1.6,1.75-1.04.99-1.62,1.3-2.06,2.2-.03.06-.41.86-.4,1.81.01,2.07,1.84,4.66,4.48,4.82,1.89.12,3.67-1.04,4.44-2.61.85-1.74.34-3.76.09-3.79-.17-.02-.2.96-1.04,2.02-.24.31-.6.76-1.17,1.03-1.07.51-2.72.31-3.32-.65-.56-.9,0-2.11.74-3.68.63-1.34,1.38-2.32,1.95-2.97.08-.09.12-.2.12-.32v-2.37c-.01-.25-.2-.47-.45-.49l-1.14-.09c-.28-.02-.51.2-.51.49v2.52Z"/>
      <rect class="cls-5" x="355.14" y="196.65" width="2.09" height="1.33"/>
      <line class="cls-1" x1="355.13" y1="315.44" x2="355.12" y2="224.02"/>
      <path class="cls-5" d="M270.33,380.21h-83.73c-.59,0-1.06-.49-1.06-1.09v-6.43c-.26-1.24.11-2.42.92-2.96.41-.28.85-.33,1.16-.33h18.77c.58,0,1.06-.48,1.06-1.08l.04-4.33c0-.57.42-1.04.97-1.08,5.94-.45,20.15-2.11,33.41-9.35h0c.88-.91,1.67-1.29,2.59-1.86.58-.36.35-.26,1.43-.99,1.29-.87,2.25-1.43,2.57-1.62,1.78-1.08,2.51-2.06,7.33-6.43.92-.84,1.39-1.26,1.7-1.53,1.19-1.04,3.23-2.73,5.3-4.88.59-.61,1.19-1.27,1.11-2.06-.05-.5-.34-.67-.83-1.43-.53-.81-1.16-1.8-1.11-2.87.04-.8.46-1.47,1.21-2.64.5-.79.8-1.05.8-1.57,0-.54-.31-1.02-.67-1.38-.2-.2-.3-.47-.3-.76,0-43.08,0-86.15,0-129.23,0-.42.24-.8.61-.98.89-.42,1.51-1.3,1.59-2.31.1-1.23-.63-2.4-1.76-2.85-.17-.07-.33-.17-.45-.31-.36-.43-.93-1.27-1.07-2.47-.23-2.05,1.01-3.48,1.21-3.69,1.18-.21,1.97-1.3,1.85-2.39-.08-.71-.53-1.34-1.17-1.67-.36-.19-.59-.55-.6-.96l-.04-5.95c0-.59-.46-1.08-1.04-1.08-1.33-.02-3.15,0-5.28.12-8.47.5-14.85,2.56-20.95,4.54-5.5,1.79-9.53,3.5-13.06,5-3.39,1.44-7.6,3.11-12.78,5.98-9.25,5.13-12.15,6.66-17.94,9.71-.48.25-1.59.83-3.15,1.31,0,0-1.65.5-3.48.68-.71.07-1.4.11-2.08.13-10.09.23-15.91-5.29-15.91-5.29-6.68-6.34-8.62-18.5-2.88-27.15,3.76-5.67,11.32-10.58,19.47-8.62,7.17,1.72,13.55,8.45,13.55,16.07,0,5.99-3.95,10.01-4.43,10.49-.33.32-5.49,5.25-12.15,3.89-1.26-.26-4.38-.89-6.4-3.72-2.13-2.97-2.85-8.09-.08-10.91,2.4-2.45,6.53-2.26,6.66-1.82.06.21-.69.63-1.4.98-.16.11-2.64,1.86-2.55,4.82.08,2.43,1.84,4.15,3.37,4.82,3.41,1.49,8.19-1.17,9.41-5.04.96-3.04-.6-5.77-.87-6.25-2.2-3.86-6.61-4.39-7.1-4.44-5.58-.57-12.31,4.39-12.73,11.16-.4,6.39,5.05,10.92,9.2,12.43.38.14,4.81,1.68,9.36-.08,1.6-.62,2.03-1.2,5.93-3.72,2.74-1.78,4.19-2.57,6.29-3.83,8.05-4.84,14.21-9.67,22.81-14.79,7.48-4.46,12.2-7.28,19.12-9.45,8.36-2.62,15.69-2.98,20.6-2.86-.89-.58-1.57-1.25-2.1-1.96-6.81-9.22,8.69-31.16,9.79-32.68"/>
      <path class="cls-5" d="M220.1,315.44c-1.75,2.09-14.16,16.38-34.73,16.3-20.38-.08-32.63-14.21-34.4-16.33l65.98.03h3.15Z"/>
      <path class="cls-5" d="M185.54,222.73l31.41,92.71h3.15s-33.5-98.1-33.5-98.1h-1.55v98.07c.16-30.87.33-61.75.49-92.62v-.06Z"/>
      <ellipse class="cls-2" cx="185.44" cy="213.14" rx="4.17" ry="4.3"/>
      <path class="cls-5" d="M185.53,222.73l-31.41,92.71h-3.15s33.5-98.1,33.5-98.1h1.55v98.07c-.16-30.87-.33-61.75-.49-92.62v-.06Z"/>
      <path class="cls-5" d="M185.53,199.91c0,.11.04.23.11.32.63.78,1.19,1.36,1.6,1.75,1.04.99,1.62,1.3,2.06,2.2.03.06.41.86.4,1.81-.01,2.07-1.84,4.66-4.48,4.82-1.89.12-3.67-1.04-4.44-2.61-.85-1.74-.34-3.76-.09-3.79.17-.02.2.96,1.04,2.02.24.31.6.76,1.17,1.03,1.07.51,2.72.31,3.32-.65.56-.9,0-2.11-.74-3.68-.63-1.34-1.38-2.32-1.95-2.97-.08-.09-.12-.2-.12-.32v-2.37c.01-.25.2-.47.45-.49l1.14-.09c.28-.02.51.2.51.49v2.52Z"/>
      <rect class="cls-5" x="183.43" y="196.65" width="2.09" height="1.33" transform="translate(368.95 394.62) rotate(180)"/>
      <line class="cls-1" x1="185.53" y1="315.44" x2="185.54" y2="224.02"/>
      <polygon class="cls-5" points="270.33 0 277.54 19.92 298.72 20.63 282 33.64 287.88 54 270.33 42.12 252.79 54 258.66 33.64 241.94 20.63 263.12 19.92 270.33 0"/>
      <polygon class="cls-5" points="217.88 31.86 223.44 47.2 239.74 47.74 226.87 57.76 231.39 73.43 217.88 64.28 204.38 73.43 208.9 57.76 196.03 47.74 212.33 47.2 217.88 31.86"/>
      <polygon class="cls-5" points="320.57 31.64 326.13 46.97 342.43 47.51 329.56 57.53 334.08 73.2 320.57 64.06 307.07 73.2 311.59 57.53 298.72 47.51 315.02 46.97 320.57 31.64"/>
    </g>
    <text class="cls-4" transform="translate(550.1 250.77)"><tspan x="0" y="0">ESTUDIO JURÍDICO</tspan></text>
    <text class="cls-3" transform="translate(635.82 283.89)"><tspan class="cls-7" x="0" y="0">F</tspan><tspan class="cls-8" x="17.57" y="0" xml:space="preserve">ontana  Manucci  </tspan><tspan class="cls-6" x="235.88" y="0">F</tspan><tspan class="cls-8" x="253.45" y="0">ernandez</tspan></text>
  </g>
</svg>