<?xml version="1.0" encoding="UTF-8"?>
<svg id="Capa_1" data-name="Capa 1" xmlns="http://www.w3.org/2000/svg" viewBox="0 0 24 24.03">
  <defs>
    <style>
      .cls-1 {
        fill: #f2f2f2;
      }

      .cls-1, .cls-2, .cls-3, .cls-4, .cls-5, .cls-6, .cls-7, .cls-8, .cls-9, .cls-10, .cls-11, .cls-12, .cls-13, .cls-14, .cls-15, .cls-16, .cls-17, .cls-18, .cls-19, .cls-20, .cls-21, .cls-22, .cls-23, .cls-24, .cls-25, .cls-26, .cls-27, .cls-28, .cls-29, .cls-30, .cls-31, .cls-32, .cls-33, .cls-34, .cls-35, .cls-36, .cls-37, .cls-38 {
        stroke-width: 0px;
      }

      .cls-2 {
        fill: #737373;
      }

      .cls-3 {
        fill: #919191;
      }

      .cls-4 {
        fill: #e2e2e2;
      }

      .cls-5 {
        fill: #606060;
      }

      .cls-6 {
        fill: #707070;
      }

      .cls-7 {
        fill: #656565;
      }

      .cls-8 {
        fill: #787878;
      }

      .cls-9 {
        fill: #6f6f6f;
      }

      .cls-10 {
        fill: #7c7c7c;
      }

      .cls-11 {
        fill: #828282;
      }

      .cls-12 {
        fill: #8b8b8b;
      }

      .cls-13 {
        fill: #f0f0f0;
      }

      .cls-14 {
        fill: #7e7e7e;
      }

      .cls-15 {
        fill: #838383;
      }

      .cls-16 {
        fill: #fefefe;
      }

      .cls-17 {
        fill: #7d7d7d;
      }

      .cls-18 {
        fill: #ededed;
      }

      .cls-19 {
        fill: #646464;
      }

      .cls-20 {
        fill: #686868;
      }

      .cls-21 {
        fill: #8d8d8d;
      }

      .cls-22 {
        fill: #696969;
      }

      .cls-23 {
        fill: #767676;
      }

      .cls-24 {
        fill: #727272;
      }

      .cls-25 {
        fill: #e0e0e0;
      }

      .cls-26 {
        fill: #949494;
      }

      .cls-27 {
        fill: #676767;
      }

      .cls-28 {
        fill: #848484;
      }

      .cls-29 {
        fill: #747474;
      }

      .cls-30 {
        fill: #909090;
      }

      .cls-31 {
        fill: #8c8c8c;
      }

      .cls-32 {
        fill: #7f7f7f;
      }

      .cls-33 {
        fill: #757575;
      }

      .cls-34 {
        fill: #6c6c6c;
      }

      .cls-35 {
        fill: #868686;
      }

      .cls-36 {
        fill: #777;
      }

      .cls-37 {
        fill: #878787;
      }

      .cls-38 {
        fill: #7a7a7a;
      }
    </style>
  </defs>
  <path class="cls-37" d="M13.52,0h.28s.1.04.15.04c.2.01.39.08.56.18.09.05.16.12.24.19.03.03.05.06.08.08.07.04.07.08.02.14-.09.13-.09.13.03.24.15.15.2.32.14.53-.03.1-.06.11-.16.05.06.12.05.24.07.36.04.27-.03.54-.03.8,0,.05,0,.12-.07.12-.08,0-.08-.06-.09-.12-.03-.27,0-.55-.01-.82,0-.09,0-.16-.07-.23-.01-.1,0-.2,0-.3.05-.14-.02-.25-.1-.36-.12-.16-.28-.27-.46-.36-.03-.01-.06,0-.09,0-.13,0-.27.01-.4-.02-.11-.03-.14.07-.18.14-.33.21-.46.49-.45.87.02.65,0,1.31,0,1.96,0,.07.01.15-.03.21-.08.05-.11-.01-.1-.06.03-.2-.01-.4.02-.61.04-.21.02-.43,0-.64-.02-.15-.05-.3,0-.46.01-.03.02-.07,0-.09-.07-.11-.01-.22-.02-.33,0,.11-.05.22.02.33,0,.02,0,.04,0,.06-.08.14-.04.3-.02.44.03.2.01.4.03.59,0,.02,0,.03,0,.05,0,.03,0,.07-.04.07-.04,0-.06-.02-.07-.06-.01-.08-.02-.15-.02-.22.01.11,0,.22.07.34.06.1.04.23.03.35,0,.08,0,.16.02.25.02.06.04.15-.06.18-.08.02-.13-.03-.15-.14-.03-.16-.05-.31-.02-.47.02-.1-.06-.14-.1-.15.06.02.12.08.09.19-.03.12,0,.23.02.35.02.11.04.21.02.32-.01.07-.04.13-.12.14-.09.01-.13-.08-.13-.12-.01-.14-.1-.27-.07-.42,0-.03,0-.06.01-.1,0-.01,0-.03,0-.01,0,0,0,0-.01,0-.08-.01-.11-.09-.17-.12-.04-.03-.09-.02-.13-.02-.32,0-.65,0-.97,0-.11,0-.22.02-.32.06-.08.07-.06.17-.06.25,0,.43-.16.79-.48,1.08-.61.56-1.65.48-2.17-.15-.22-.27-.33-.58-.33-.93,0-.09.02-.19-.03-.28-.01-.02-.02-.04-.04-.05-.09-.05-.18-.03-.27-.04-.06,0-.12,0-.12-.08,0-.07.06-.08.11-.09.08,0,.16,0,.15-.12,0-.07.08-.07.17-.07-.16-.05-.29-.03-.42-.02-.36.02-.72.04-1.08-.01-.12-.02-.14-.05-.06-.14.06-.03.13-.02.2-.02.38,0,.76,0,1.15,0,.25,0,.28-.13.23-.34-.02-.09-.11-.1-.19-.1-.31,0-.61,0-.92,0-.08,0-.16,0-.24,0-.05,0-.09,0-.13-.03-.04-.11.02-.11.11-.11.35,0,.71,0,1.06,0,.1,0,.2,0,.3,0,.15,0,.18.03.18.17,0,.11.02.23.04.34.03-.11.13-.19.16-.31.01-.05.07-.06.12-.05.05.02.07.06.07.11,0,.15,0,.3,0,.46-.02-.51,0-1.01-.03-1.52,0-.09.02-.17.03-.26,0-.05,0-.12.07-.13.07,0,.09.05.11.1-.05.18-.04.36-.04.55,0,.65,0,1.3,0,1.95,0,.26.07.5.29.68.25.21.53.25.84.13.32-.13.46-.39.49-.71,0-.08,0-.16,0-.24,0-.63,0-1.26,0-1.9,0-.33-.08-.61-.37-.82-.01,0-.02-.02-.02-.03,0-.13.08-.17.2-.12.04.02.06.04.09.07.03.02.04.06.08.08.03-.06,0-.16.09-.19.06-.01.1,0,.14.05-.06-.09-.13-.17-.22-.23-.1-.06-.1-.12-.01-.18.23.07.36.24.48.42.16.25.24.52.22.81,0,.07-.02.16.06.21.09.04.2.05.29.05.37.03.74.04,1.11-.04.02,0,.03-.01.04-.02.06-.05.05-.12.05-.19.01-.43.15-.81.49-1.11.2-.18.43-.3.7-.31.02,0,.04,0,.06-.01Z"/>
  <path class="cls-15" d="M12.35,3.51s-.03-.15.04-.14c.08.01,0,.08-.01.12-.02.2.02.39.11.58.04.09.07.04.09,0,.02-.03.03-.07.02-.11,0-.19,0-.38-.1-.56-.02-.03,0-.04.02-.05.04-.02.05-.04.04-.08-.01-.04-.04-.05-.08-.05-.03,0-.07,0-.1,0-.03,0-.06,0-.08-.03-.01-.03.01-.06.03-.09.06-.06.16-.04.23,0,.14.1.12.24.1.38-.02.13.04.25.04.39q.07-.07.11,0s.01-.08,0-.12c-.04-.08-.03-.17-.02-.25.02-.13,0-.25-.06-.37-.05-.08-.02-.18-.03-.26,0-.09,0-.18.02-.31.09.17.03.34.12.47.02-.18.03-.36.01-.54,0-.03-.03-.06-.06-.05-.12.02-.08-.03-.04-.08.06-.06.07-.13.04-.2-.03-.08-.03-.15.03-.22.05-.06.02-.09-.05-.09-.04,0-.08-.02-.05-.05.11-.13.06-.3.14-.44.03.05.02.1.02.15,0,.69,0,1.37,0,2.06,0,.06,0,.11.02.17.1.1.1.22.11.34-.07.07-.05.15-.02.23q.02.09.26.22s-.11-.05-.17-.08c-.07-.03-.07-.11-.1-.16,0-.06-.04-.14.03-.19.07,0,.09.05.12.09.37.43,1.04.38,1.33-.1.08-.13.11-.28.11-.43,0-.7,0-1.4,0-2.1,0-.06,0-.11,0-.17,0-.04,0-.09.07-.1.03.02.03.06.02.09,0,.75,0,1.49,0,2.24,0,.02,0,.04,0,.04,0-.03,0-.06,0-.09,0-.62,0-1.23,0-1.85,0-.04-.01-.09.01-.13.07.04.07.11.08.18,0,.29-.03.58.02.87,0,.02,0,.05.03.06.09-.47.05-.95,0-1.42.02,0,.03,0,.05,0,.02.06.04.12.06.18.11-.17.07-.39-.09-.53-.02-.01-.03-.02-.05-.04q-.13-.11-.02-.24s.09-.08,0-.15c-.07-.06-.16-.11-.21-.19-.01-.02-.04-.05-.07-.01-.04.05-.06,0-.08-.02-.06-.1-.13-.13-.26-.14-.12,0-.27,0-.36-.12h.2c.07.05.15.04.23.06.57.18.97.71.98,1.3,0,.07,0,.14,0,.21-.01.1.03.15.13.14.02.02.06.01.08.01.91,0,1.82,0,2.73,0,.02,0,.04,0,.06,0,.12.03.19.1.2.22-.02.22,0,.44-.01.67,0,.17,0,.33,0,.5,0,.05-.02.09-.05.12-.06.05-.1.1-.1.19,0,.05-.05.08-.1.07-.08-.02-.08.03-.08.08,0,.22.02.45-.03.67-.01.05-.03.1-.08.11-.05.01-.09,0-.11-.05-.01-.47,0-.94,0-1.41,0-.17-.02-.34-.08-.5-.05-.06-.11-.07-.18-.07-.7,0-1.4,0-2.09,0-.16,0-.22.06-.22.22,0,.16.05.22.21.22.49,0,.98,0,1.46,0,.2,0,.32.08.37.24.02.05.02.1.02.14,0,.97,0,1.94,0,2.91,0,.06,0,.12-.04.17-.11.02-.1-.05-.1-.12,0-.26,0-.52,0-.78,0-.49.05-.97.05-1.46,0-.18,0-.37,0-.55.01.43-.01.87-.02,1.3,0,.06,0,.12-.09.12-.07,0-.09-.05-.09-.12,0-.16,0-.16-.17-.2-.06-.01-.09-.05-.1-.1-.03-.08-.03-.16-.03-.24,0-.14,0-.28,0-.4,0,.22,0,.46.04.71.03.18,0,.36,0,.55.01.39,0,.78,0,1.18,0,.06.03.15-.1.14-.06-.07-.05-.15-.05-.23,0-.78,0-1.56,0-2.34,0-.08,0-.16-.04-.22-.09-.07-.21-.08-.31-.08-.29-.01-.59-.02-.88.04-.03,0-.06.01-.08.03-.06.05-.05.12-.05.18,0,.39-.12.74-.39,1.03-.27.29-.6.45-1,.47-.43.03-.8-.1-1.12-.38-.26-.23-.41-.51-.46-.83-.02-.1-.04-.19-.03-.29,0-.05,0-.11.08-.12Z"/>
  <path class="cls-12" d="M6.11,2.82c0,.05.04.04.07.05.37.04.74.04,1.12,0,.14-.01.28-.02.41.02.04.01.1.01.09.08-.01.06-.06.07-.12.06-.04,0-.07,0-.11-.01,0,.04.03.04.05.06.02.02.05.04.04.07,0,.04-.04.05-.07.06-.08,0-.15,0-.23,0-.02,0-.05,0-.05.03,0,.03.03.04.05.04.06,0,.13,0,.19,0,.05,0,.1,0,.13.05-.04.05-.09.04-.14.04-.25,0-.5,0-.74,0-.19,0-.38.04-.57.06-.09.04-.07.13-.07.2,0,.31-.08.6-.26.87-.58.83-1.83.86-2.44.05-.13-.17-.24-.37-.26-.59.09-.1.12-.23.2-.35.07-.1.19-.14.25-.25.02-.03.06-.02.07.03,0,.05,0,.11,0,.16-.08-.64-.03-1.28-.04-1.92,0-.06,0-.11,0-.17,0-.04.01-.09.06-.09.06,0,.05.05.06.09,0,.03,0,.07,0,.1,0,.45,0,.9,0,1.35,0,.29.03.58.05.87,0,.31.36.7.81.69.43,0,.77-.34.78-.75,0-.27,0-.53,0-.8,0-.47,0-.95,0-1.42,0-.11,0-.22-.03-.33-.01-.04-.02-.09.01-.13.12-.05.22,0,.2.13-.11.68-.01,1.37-.05,1.91,0-.43,0-1,0-1.57,0-.09,0-.17.12-.19.06-.01.11-.06.14-.12.04-.07.09-.12.15-.16.09-.02.11.03.13.1.02.1.03.21.03.32,0,.14.04.18.18.19.4,0,.81.01,1.21,0,.14,0,.18-.06.18-.2,0-.28.05-.54.2-.79.14-.24.34-.43.6-.56.15-.07.3-.07.46-.1h.48c.11.02.23.02.35.05.09.03.19.04.19.16-.03.07.04.09.08.12.14.1.24.22.28.4-.09-.01-.13-.07-.19-.11-.03-.02-.05-.04-.08,0-.02.02,0,.04.01.06.07.08,0,.13-.06.15-.05.02-.13.04-.14-.07-.01-.11-.13-.15-.24-.09-.04.04-.1.02-.14,0-.45-.17-.83.05-1.01.36-.02.04-.04.1-.11.08,0-.03-.02-.05-.05-.08,0,.16-.03.31-.03.46,0,.49,0,.99,0,1.48,0,0,0,0,0,.01-.01.04.02.12-.05.12-.06,0-.05-.08-.05-.12,0-.15,0-.29,0-.44,0-.04,0-.07,0-.11,0-.02-.02-.05-.05-.05-.02,0-.04.02-.04.04,0,.13-.16.21-.12.36.02.07-.09.07-.15.11-.01-.2-.03-.39-.04-.57,0-.1-.08-.09-.15-.09-.42,0-.83,0-1.25,0-.06,0-.13-.05-.19.02-.06.11-.07.24-.06.37,0,.07,0,.14-.04.2Z"/>
  <path class="cls-3" d="M3.79,3.8c-.03-.06-.02-.12-.02-.18,0-.69,0-1.37,0-2.06,0-.04,0-.09,0-.13,0,0-.02,0-.03,0v2.3c-.08-.1-.03-.21-.07-.32,0,.13-.13.13-.17.19-.09.13-.23.24-.25.41-.08,0-.07-.07-.08-.12,0-.09.05-.17.04-.26,0-.14-.05-.18-.19-.21-.34-.07-.69-.02-1.04-.04-.06,0-.11.02-.15.06-.05.05-.06.11-.06.17,0,.07,0,.13,0,.2,0,6.04,0,12.08,0,18.13,0,.37,0,.38.39.38,2.56,0,5.13,0,7.69,0,.34,0,.36-.02.36-.35,0-.63,0-1.25,0-1.88,0-.06,0-.12,0-.18,0-.05.02-.09.08-.09.07.05.05.12.05.18,0,.72.02,1.44.01,2.17q0,.27-.28.27c-2.61,0-5.21,0-7.82,0-.17,0-.33.07-.5.03-.04-.02-.08-.03-.1-.08-.01-.07,0-.15,0-.22,0-4.45,0-8.9,0-13.34,0-1.67,0-3.33.03-5,0,.57,0,1.14,0,1.72-.09.06-.11-.02-.14-.07-.02-.05-.02-.11-.04-.17-.02-.11-.09-.13-.17-.06-.04.03-.06.11-.14.08-.07-.03-.04-.11-.04-.17,0-.62,0-1.25,0-1.87,0-.09,0-.18-.04-.26.04-.16.14-.24.31-.25.37,0,.75,0,1.12,0,.12,0,.24,0,.35,0,.22,0,.32-.17.22-.36-.03-.06-.09-.08-.16-.08-.12,0-.24,0-.35,0-.06,0-.12,0-.17-.03-.04-.05-.03-.08.03-.07.05,0,.09,0,.13,0-.05-.01-.14.04-.15-.07,0-.04-.05-.02-.08-.02-.07.01-.13,0-.14-.07-.01-.08.07-.09.12-.1.08-.02.16.02.22,0-.16,0-.34-.01-.53-.02-.05,0-.09-.03-.09-.08,0-.06.05-.08.09-.08.08.01.13-.05.2-.08.25,0,.49,0,.74,0,.04-.01.07.04.11,0,0-.01,0-.02.01-.03.05-.07.04-.14.04-.21,0-.45.15-.84.5-1.15.2-.18.41-.29.68-.3.02,0,.05,0,.07-.01h.51c.22.03.45.06.63.21.16.13.32.27.41.46.03.12.03.25.07.37,0,0,0,.01,0,.02-.09.12-.11.32-.32.34-.1.01-.09.09-.09.16,0,.59,0,1.18,0,1.77,0,.05,0,.1-.02.15-.04-.05-.03-.1-.03-.15,0-.62,0-1.25,0-1.87,0-.11-.04-.21,0-.32.02-.05-.05-.09-.11-.07-.09.01-.11-.07-.15-.11-.18-.24-.43-.36-.73-.33-.44.04-.72.36-.72.8,0,.7,0,1.4,0,2.09,0,.06,0,.11,0,.17,0,.04,0,.09-.06.11Z"/>
  <path class="cls-24" d="M1.77,22.39c2.76,0,5.53,0,8.29,0,.24,0,.25,0,.24-.24,0-.78,0-1.56,0-2.34-.03-.03-.03-.06-.01-.1.06-.05.11-.03.14.03.04.07.05.16.04.24-.03.17-.03.35-.01.47-.04-.21.01-.47.07-.72.03-.13.08-.13.2-.07.14.07.15.18.15.3,0,1,0,2,0,3,0,.14.02.28.07.42.05.06.12.04.19.05.07,0,.14-.01.2.04.02.11,0,.15-.11.17-.04,0-.08,0-.13,0-.08,0-.13.05-.15.12-.02.12-.08.19-.21.2-.04,0-.07.03-.1.05h-4.42c-.06-.07-.02-.12.03-.16.07-.05.13-.12.17-.19.05-.08.13-.11.22-.11.08,0,.15,0,.22,0-.1,0-.2,0-.31,0-.07,0-.14-.03-.06-.11.09-.03.17-.02.26-.02,1.02,0,2.04,0,3.07,0,.05,0,.1,0,.15,0,.21,0,.31-.14.24-.34-.02-.06-.07-.09-.13-.1-.06,0-.13,0-.19,0-2.74,0-5.48,0-8.22,0-.08,0-.16,0-.24,0-.07,0-.14-.01-.18-.09-.02-.08.04-.1.1-.09.4.03.81,0,1.21.02.04,0,.08,0,.11-.01.05,0,.09,0,.14,0,.07.03.14,0,.21,0,.17,0,.34,0,.5,0,.83-.01,1.66,0,2.48,0,.23,0,.45-.04.68-.02.27.02.52.01.74-.17.07-.06.18-.09.29-.1-.06,0-.12,0-.18-.01-.04,0-.09-.02-.08-.06,0-.06.06-.03.09-.03.43,0,.86,0,1.29,0,.39,0,.78,0,1.17,0-.77,0-1.55-.02-2.32,0-.34.01-.68.02-1.03.05-.18.02-.36-.04-.54-.04-.98,0-1.97,0-2.95,0-.41,0-.81.02-1.22.02-.06,0-.15.02-.17-.08Z"/>
  <path class="cls-16" d="M4.4,0c-.14.06-.29.08-.42.16-.5.28-.75.7-.76,1.25,0,.07,0,.14,0,.21,0,.05-.02.09-.08.09-.02.02-.05.03-.08.03-.13-.02-.26-.01-.39,0-.65.03-1.3.02-1.95.02-.13,0-.26.05-.4.04-.09,0-.16,0-.22.07-.02.03-.05.04-.09.02C0,1.29,0,.69,0,.09,0,.01.02,0,.09,0c1.44,0,2.87,0,4.31,0Z"/>
  <path class="cls-5" d="M23.82,24.03h-4.24c-.05-.05-.06-.11,0-.15.13-.09.22-.24.36-.32.08-.05.16-.08.25-.06.21.04.42,0,.62-.07.03,0,.05,0,.08-.01.07-.02.1-.05.1-.13,0-.1.02-.19.01-.29,0-.06.03-.11.09-.13.09-.02.11-.08.09-.16-.03-.12-.03-.23.06-.33.04-.04.04-.1.05-.16.04-.3.06-.6.06-.9,0-.06,0-.12.09-.1.03.01.04.04.05.07,0,.55,0,1.1,0,1.65,0,.15.01.3.09.44.06.05.13.05.2.05.45,0,.9,0,1.35,0,.2,0,.25-.05.25-.25,0-.72,0-1.44,0-2.16,0-.08-.02-.16.04-.22.13-.03.11.06.11.13-.01.19-.01.37-.03.56-.03.41,0,.81,0,1.12-.02-.49,0-1.08.03-1.67,0-.16-.01-.32.03-.47.03-.11.09-.21.08-.34,0-.11.26-.2.36-.13v3.87c-.02.1-.08.15-.18.17Z"/>
  <path class="cls-16" d="M5.88.69c-.18-.33-.47-.53-.84-.64-.05-.01-.1-.03-.14-.05h4.07c-.15.05-.31.08-.45.16-.49.28-.74.7-.75,1.25,0,.3,0,.3-.31.3-.42,0-.84,0-1.26,0-.1,0-.12-.03-.12-.12,0-.13,0-.27-.02-.4,0-.05,0-.1-.05-.13,0,0,0,0,0,0-.05-.12-.11-.24-.13-.36Z"/>
  <path class="cls-16" d="M9.98.22c-.15-.13-.35-.16-.54-.22h4.07c-.18.06-.38.11-.54.22-.41.28-.62.66-.64,1.14,0,.11,0,.23,0,.34-.02.02-.05.02-.07.02-.51,0-1.02,0-1.53,0-.02,0-.05,0-.07-.02-.04-.11-.02-.23-.02-.34,0-.4-.16-.74-.47-1.02-.06-.05-.13-.09-.19-.14Z"/>
  <path class="cls-35" d="M0,17.06v-6.84s.08-.05.13-.07c.07-.02.13-.05.19-.1.03-.03.07-.06.12-.04.05.02.03.07.03.11,0,.73,0,1.45,0,2.18,0-.71,0-1.43,0-2.14,0-.06,0-.12-.03-.18-.02-.03-.01-.07,0-.11,0-.02.03-.04.05-.04.03,0,.04.03.05.05,0,.04,0,.09,0,.13,0,.91,0,1.82,0,2.73.04.74.02,1.47.03,2.21,0,.11-.02.23,0,.34,0,1.25,0,2.49,0,3.74,0,.04,0,.09-.03.13-.02.01-.04,0-.05-.02,0-.04,0-.07,0-.11,0-1.02,0-2.03,0-3.05,0,1.03,0,2.05,0,3.08,0,.04.03.12-.03.13-.07,0-.07-.08-.07-.14,0-.27,0-.55,0-.82,0-.29-.02-.58.02-.87.01-.07-.02-.16-.02-.23-.01-.13-.06-.15-.17-.07-.08.06-.15.08-.22,0Z"/>
  <path class="cls-34" d="M10.64,24.03s.05-.11.11-.11c.11-.01.14-.09.14-.17,0-.14.08-.16.2-.16.09,0,.2.03.24-.1.04-.07.12-.06.18-.06.33,0,.66,0,.98,0,.25,0,.29-.04.29-.28,0-.58,0-1.17,0-1.75,0-.12.02-.23.14-.31.22-.14.5-.02.54.23,0,.06,0,.12,0,.18,0,.55,0,1.1,0,1.65,0,.23.04.27.28.27.27,0,.54,0,.81,0,.13,0,.27,0,.4,0,.14,0,.27,0,.41,0,.45.06.9.05,1.34.05.04,0,.11-.01.11.05,0,.05-.06.06-.11.06-.14,0-.28,0-.42,0-.29,0-.57,0-.86,0-.18,0-.34.07-.52.09-.06,0-.09.06-.13.09-.12.09-.21.07-.27-.07q.09.24-.06.32h-.2s-.08-.05-.13,0h-3.49Z"/>
  <path class="cls-27" d="M14.45,24.03s.04-.05.05-.08c.03-.07.04-.13-.06-.17-.1-.04-.09-.12,0-.17.03-.01.05-.03.08-.04.05-.02.1-.04.14,0,.04.05-.01.08-.05.11-.02.02-.06.04-.03.08.02.03.06.01.09,0,.04-.01.08-.03.09-.06.04-.1.1-.13.21-.1.02,0,.04,0,.06,0,.22-.1.46-.06.7-.06.3,0,.6,0,.9,0,.04,0,.08,0,.12-.02-.4,0-.8,0-1.2,0-.06,0-.13,0-.19-.02.02-.04.06-.05.1-.06.05,0,.1,0,.15,0,1.65,0,3.3,0,4.94,0,.09,0,.19-.03.26.06-.03.04-.08.05-.13.05-.11,0-.22,0-.32.04-.05.02-.1,0-.15-.02-.1-.03-.16,0-.25.06-.14.08-.18.26-.34.31-.05.01-.04.07-.05.11h-5.13Z"/>
  <path class="cls-36" d="M6.47,23.49c.1.05.21.02.31.02.07,0,.14,0,.21,0,.03,0,.07,0,.08.05,0,.05-.04.05-.07.05-.08,0-.17.02-.25,0-.13-.02-.24.01-.3.14-.03.06-.08.1-.13.13-.05.04-.09.08-.1.14H1.69c-.06-.09.02-.15.05-.22.03-.06.08-.1.13-.13-.13.14-.3.23-.44.35h-.15c-.06-.06-.01-.11.03-.14.08-.06.15-.13.21-.2.02-.02.04-.05.02-.07-.03-.03-.06,0-.09.02-.04.03-.06.07-.09.1-.03.03-.07.04-.11.01-.04-.02-.06-.07-.04-.1.05-.07.06-.16.15-.2.09-.01.18-.01.28,0,1.48,0,2.97,0,4.45,0,.08,0,.16,0,.24,0,.05,0,.1,0,.13.06Z"/>
  <path class="cls-26" d="M0,1.89c.06-.09.12-.18.25-.17.04.02.09.01.14.01.57,0,1.13,0,1.7,0,.05,0,.09-.01.14.01-.03.11-.15.05-.21.11.03.05.07.04.11.04.19-.01.39.03.58.03.03,0,.09-.01.09.04,0,.04-.05.03-.08.03-.14.03-.28,0-.41.07.08,0,.17,0,.25,0,.04,0,.09-.01.1.04,0,.05-.05.05-.08.06-.01,0-.03.01-.07.03.1.04.19,0,.29.04-.13.03-.25-.01-.36.04-.05.08-.13.06-.2.06-.46,0-.92,0-1.38,0-.07,0-.14,0-.2.05-.06.11-.07.23-.07.35,0,.68,0,1.37,0,2.05,0,.03,0,.07-.01.1-.1.04-.14.02-.16-.07-.02-.09.02-.17.02-.26,0-.05.01-.11-.05-.13-.06-.02-.07.04-.1.08-.08.11-.16.12-.27.04V1.89Z"/>
  <path class="cls-11" d="M0,17.06c.09,0,.17,0,.21-.11.03-.08.12-.07.19-.06.08,0,.05.08.05.13,0,.66,0,1.32,0,1.98,0,.04,0,.09,0,.13h.02v-3.34s.02,0,.03,0c0,.04,0,.08,0,.12,0,1.02,0,2.05,0,3.07,0,.06,0,.12.02.18.05.03.04.08.04.12,0,.87,0,1.73,0,2.6,0,.05.01.1-.07.13,0-.54,0-1.07,0-1.59,0,.49,0,.97,0,1.46,0,.03.02.09-.02.09-.06,0-.07-.05-.07-.1-.01-.13,0-.25,0-.38,0-.03.01-.08-.04-.09-.04-.01-.07.03-.09.05-.01.02-.02.03-.03.05-.07.1-.12.1-.23.03v-3.87c.12-.06.18-.17.24-.26-.08.09-.13.1-.24.02v-.37Z"/>
  <path class="cls-14" d="M0,21.55c.09,0,.17,0,.19-.11,0-.03.03-.06.07-.07.05-.02.09-.05.1-.11,0-.03.02-.07.06-.07.05,0,.04.06.04.09,0,.2,0,.39,0,.59,0,.02,0,.05.02.07v-1.65s.02,0,.03,0v1.68h.03c0-.93,0-1.86,0-2.79,0-1.29,0-2.58,0-3.87.02,0,.03,0,.05,0,.04.04.04.09.04.14,0,.08,0,.16,0,.23,0,2.47,0,4.93,0,7.4,0,.33.02.35.36.35.08,0,.15,0,.23,0,.05,0,.1,0,.13.06,0,.06-.02.1-.05.15-.01.02-.02.05,0,.07.03.02.04-.01.06-.03.07-.08.12-.18.26-.16.03,0,.07,0,.09.03.02.04-.01.06-.03.08-.1.11-.19.24-.32.32-.03.02-.05.05-.05.08H.18c-.1-.02-.16-.08-.18-.17v-2.3Z"/>
  <path class="cls-31" d="M.51,12.75v-2.86s-.01,0-.02,0v2.58s-.02,0-.03,0c0-.04,0-.08,0-.12,0-.71,0-1.42,0-2.13,0-.04,0-.08,0-.12,0-.04-.04-.07-.06-.02-.09.15-.24.15-.39.15v-2.84c.09-.08.12-.2.22-.27.04-.02.02-.08.02-.13,0-.12,0-.24.06-.35.08-.14.15-.15.26-.02.01.28,0,.57,0,.85,0,0,0,.02,0,.02-.12.12-.07.24,0,.36,0,.01,0,.03,0,.05,0,.62,0,1.23,0,1.85,0,.95,0,1.9,0,2.85,0,.06.03.14-.06.16Z"/>
  <path class="cls-19" d="M24,19.98c-.13-.02-.2.1-.3.13-.04.01.01.05.04.07.07.05.07.09,0,.12-.05.02-.09.06-.09.11,0,.14-.07.27-.07.41.02.41-.06.82-.06,1.23,0,.23.02.46.01.68,0,.05.02.1-.03.15-.03-.04-.02-.08-.02-.12,0-.56,0-1.11,0-1.67,0-.06,0-.11.02-.17,0-.06,0-.11-.04-.14-.07-.03-.06-.1-.06-.16,0-.28,0-.56-.03-.84-.04-.43-.14-.83-.35-1.21-.05-.08-.05-.17-.08-.26.06-.07.12-.14.2-.2.06-.04.07-.13.12-.18.03-.02.04-.07.09-.05.26.37.43.78.54,1.21.01.04.02.08.03.12.07.1.04.22.06.34,0,.03-.01.07.01.11v.32Z"/>
  <path class="cls-30" d="M.53,6.6c-.09-.04-.14-.01-.18.08-.05.11-.06.23-.03.35.02.09.02.16-.09.19-.04,0-.06.03-.07.07-.01.09-.08.11-.16.1v-2.84c.11,0,.21,0,.24-.14.02-.08.11-.09.18-.09.05,0,.06.08.06.13,0,.09,0,.19-.02.28-.01.06-.02.13.07.16.05.04.04.09.04.14,0,.48,0,.96,0,1.44,0,.05.01.1-.04.14Z"/>
  <path class="cls-14" d="M1.44,24.03c0-.08.03-.13.1-.17.13-.07.24-.16.32-.28.03-.04.06-.08.11-.04.05.03.04.08,0,.12-.01.02-.03.05-.04.06-.14.06-.18.2-.25.31h-.25Z"/>
  <path class="cls-35" d="M0,17.43c.09,0,.17,0,.19-.1,0-.04.05-.06.1-.06.03,0,.05.02.07.05.02.05.01.11-.03.13-.06.04-.09.09-.12.16-.04.09-.13.06-.21.07v-.25Z"/>
  <path class="cls-4" d="M24,19.66c-.05-.14-.06-.29-.08-.44.05-.01.05.03.08.05v.39Z"/>
  <path class="cls-1" d="M0,23.85c.05.07.11.12.18.17q-.18,0-.18-.17Z"/>
  <path class="cls-25" d="M23.82,24.03c.07-.05.13-.1.18-.17q0,.17-.18.17Z"/>
  <path class="cls-27" d="M14.12,24.03s0-.1.06-.1c.06,0,.05.06.07.1h-.13Z"/>
  <path class="cls-14" d="M16.69,6.25c.05-.05.04-.11.04-.17,0-.83,0-1.67,0-2.5,0-.04,0-.09,0-.13,0,0,.02,0,.03,0,0,.18,0,.37,0,.55,0,.07,0,.15.03.22.03.08.06.16.18.11.08-.03.11.03.12.1,0,.07,0,.14,0,.21,0,.03.02.06.06.05.03,0,.04-.03.04-.06-.02-.32.09-.64.04-.96-.03-.18.03-.37,0-.59.06.06.04.11.04.15,0,.97,0,1.93,0,2.9,0,.03,0,.07.03.09.11-.05.22,0,.32.02.06.01.13.06.19-.01.04-.12.06-.24.06-.36,0-.47,0-.94,0-1.42,0-.05-.02-.11.04-.15.07,0,.09-.05.1-.11.04-.22.02-.44.02-.66,0-.09,0-.18.06-.25.07.03.03.12.1.14.05-.05,0-.12.02-.17.01-.06,0-.14.1-.08.04.02.06-.03.1-.04.02.04.01.09.01.13,0,1.06,0,2.13,0,3.19,0,.04-.01.09.01.13.12.07.25.15.37.22.04.18.01.26-.13.29-.08.01-.18.06-.25-.05-.04-.05-.12-.05-.18-.01-.05.03-.1.05-.16.07-.24-.06-.47-.17-.72-.22-.35-.06-.69-.07-1.02.07-.18.07-.34.17-.45.32-.12.16-.28.21-.47.22-.3.01-.58.1-.8.32-.2.21-.28.47-.3.74-.04.53.05,1.04.21,1.54.01.05.03.09.08.12.08.05.17.05.25.06.05,0,.09.02.11.06.02.05-.02.08-.06.11-.1.07-.14.17-.22.25-.02.03-.04.06-.07.08-.06.04-.06.07-.03.14.08.15.01.28-.14.35-.15.07-.23.21-.27.36-.01.05.01.15-.08.14-.08,0-.05-.09-.05-.14,0-.09-.03-.17-.03-.26,0-.04,0-.1-.05-.09-.06,0-.09.04-.09.11.01.11.01.23.01.34,0,.09-.02.14-.11.18-.09.04-.16.11-.21.2-.08.16-.1.17-.26.09-.06-.03-.05-.09-.05-.14,0-.22-.01-.43,0-.65.02-.33.22-.55.5-.71.17-.1.18-.11.12-.3-.19-.57-.31-1.16-.29-1.77.02-.41.11-.8.36-1.13.3-.4.72-.61,1.21-.68.13-.02.23-.06.32-.15.28-.25.61-.41.98-.48.07-.01.15-.03.21.04Z"/>
  <path class="cls-29" d="M20.87,8.58c.28.07.39.32.21.54-.24.3-.54.51-.88.69-.09.05-.1.09-.08.18.04.19.07.39.1.58.01.07.03.11.11.13.42.15.64.45.64.89,0,.16,0,.32,0,.48-.01.45-.36.81-.82.84-.15,0-.23.05-.26.19,0,.03-.03.06-.05.08-.14.05-.3.06-.42.17-.03.03-.08.02-.12,0-.04-.03-.04-.07-.04-.12.02-.1.07-.2.02-.3.13-.36.25-.72.3-1.1.07-.48.07-.97-.02-1.45-.03-.18-.06-.2-.25-.16-.16.03-.31.07-.47.08-.04,0-.08,0-.11,0-.07-.03-.08-.08-.03-.14.08-.1.16-.14.3-.09.23.07.38,0,.5-.19.04-.06.19-.1.25-.06.07.05.08.12.05.19,0,.02-.02.04-.02.07,0-.03.02-.05.03-.08.04-.11-.02-.19-.15-.19-.06,0-.11.01-.16.02-.06.01-.11.01-.17-.02-.06-.03-.12-.04-.2-.03-.09.02-.17,0-.19-.11.01-.07.07-.08.13-.09.35-.08.68-.2.98-.39.11-.07.11-.08,0-.16-.03-.02-.07-.04-.07-.09,0-.04.02-.06.06-.07.09-.02.18-.03.22-.14.02-.05.08-.01.1.04.01.04,0,.08.04.11.03,0,.04-.02.04-.04.04-.2.11-.25.32-.24.04,0,.07.01.11,0Z"/>
  <path class="cls-8" d="M20.87,8.58s-.08.1-.15.14c-.01-.06,0-.09.05-.12-.14-.02-.25.06-.26.2,0,.07.03.18-.09.18-.11,0-.11-.1-.12-.18,0-.01,0-.02-.01-.06-.01.05-.02.09-.03.12-.03.11-.03.11-.14.05-.04-.02-.08,0-.13.01-.05.05-.08,0-.12-.01-.55-.27-1.13-.42-1.73-.54-.1-.02-.21,0-.28-.08-.01-.11.06-.18.12-.26.01-.02.04-.03.06-.05.02-.04.1-.06.07-.13-.04-.06-.12-.07-.17-.05-.1.04-.24-.02-.32.1-.03.04-.1.02-.12-.02-.06-.12-.17-.1-.27-.1-.07,0-.13.02-.2.02-.1,0-.14-.04-.12-.14.02-.02.05-.03.08-.04.2,0,.41.02.61,0,.4.05.81.08,1.2.19.08.02.16.05.26.07-.19-.22-.41-.39-.63-.56-.05-.04-.12-.05-.12-.13,0-.03.02-.04.05-.04.01,0,.02.02.03.02.02,0,.04,0,.06,0-.02,0-.05,0-.07,0-.06-.08-.13-.02-.2,0-.05,0-.09-.03-.09-.09.11-.12.27-.08.4-.14.02,0,.04-.01.05.01,0,.03-.01.04-.03.06-.02.01-.05.02-.03.05.01.03.04.01.07.01.15,0,.21-.06.23-.2,0-.02.02-.04.03-.05.4.28.75.6,1.03,1,.07.11.14.22.2.34.07.11.16.2.26.28.06.12.18.1.29.12.1.01.21-.02.31.02Z"/>
  <path class="cls-6" d="M19.33,12.95s.04.06.02.1c-.03.05-.03.1-.03.15,0,.04-.03.09.01.11.05.03.06-.04.1-.06.13-.07.25-.15.4-.07-.18.43-.44.82-.77,1.15-.11.1-.22.2-.34.29-.08.06-.11.13-.12.23-.05.43.03.84.28,1.21.04.06.12,0,.16.05.02.04,0,.09-.03.1-.12.04-.19.15-.31.18-.07.02-.1.04-.08.12.01.04,0,.08,0,.12-.01.07-.06.1-.12.11-.06.02-.11,0-.14-.05-.02-.03-.04-.06-.06-.09.06-.18-.02-.33-.11-.48-.13-.24-.21-.5-.22-.78-.02-.08.04-.16-.04-.23-.01,0-.02-.01-.03-.02-.04-.04-.07-.08-.11-.12-.06-.05-.06-.12-.04-.19.02-.07.06-.1.13-.11.04,0,.08-.02.12-.03.1-.03.13-.08.09-.17-.01-.04-.01-.08-.02-.12,0-.04.03-.06.07-.08.49-.31.83-.74,1.08-1.25.02-.05.05-.09.11-.08Z"/>
  <path class="cls-34" d="M19.02,16.11c-.08,0-.16.02-.25-.04.04,0,.07,0,.09-.01.35,0,.7,0,1.04,0,.59,0,1.16.12,1.7.36.04.02.08.04.12.06.01.05.06.05.09.07.03.03.06.06.05.11-.01.04-.05.07-.09.07-.14,0-.27,0-.38.1-.04.04-.13,0-.17.06-.05.03-.1,0-.14-.02-.11-.04-.2-.03-.29.04-.07.06-.16.1-.22.18-.04.04-.1.04-.15.06-.05.02-.09.04-.05.1.07.05.13.1.2.15.04.03.07.06.05.11-.07.05-.1.13-.16.18-.03.03-.03.06-.03.1,0,.14,0,.16-.14.2-.03,0-.06-.02-.09-.03-.25-.15-.49-.32-.71-.5-.16-.13-.14-.36.02-.5.09-.07.18-.13.27-.2.04-.02.08-.04.1-.11-.34,0-.68,0-1.02,0-.09-.01-.12-.06-.1-.14.02-.08.1-.12.18-.09.1.04.14,0,.21-.06.12-.1.23-.23.41-.25.1-.01.14.02.13.12,0,.04-.03.08-.06.12-.06.07-.05.11.04.12.1.02.2.02.3-.02,0,0,.02,0,.02-.01.05-.04.16,0,.16-.1,0-.09-.15-.19-.25-.2-.24-.03-.49,0-.73,0-.06,0-.12,0-.15-.06Z"/>
  <path class="cls-20" d="M21.22,16.86c.18-.07.33-.22.54-.18.03,0,.07,0,.06-.03,0-.03-.01-.07-.06-.06-.14.01-.04-.05-.03-.09.6.27,1.08.69,1.47,1.2.05.06.09.13.14.2-.06.2-.21.32-.39.42-.02,0-.03-.02-.03-.03.04-.1-.01-.13-.11-.13-.07-.03-.09-.11-.16-.16,0,0-.01-.02-.02-.03-.03-.07-.11-.1-.15-.16-.27-.27-.57-.51-.91-.69-.03-.02-.06-.04-.07-.08.01-.09-.04-.11-.12-.1-.04,0-.08.03-.12,0-.03-.01-.05-.04-.05-.07Z"/>
  <path class="cls-24" d="M18.42,6.59c-.05-.04-.03-.09-.03-.14,0-1.11,0-2.21,0-3.32,0-.35,0-.7,0-1.05,0-.05,0-.11.02-.15,0,.04,0,.07,0,.11,0,1.5,0,3,0,4.5,0,.02,0,.03,0,.05Z"/>
  <path class="cls-2" d="M18.21,1.72c-.06.03-.12.02-.19.02-.86,0-1.73,0-2.59,0-.04,0-.08.01-.1-.03.94,0,1.88,0,2.82,0,.02,0,.04,0,.06,0Z"/>
  <path class="cls-29" d="M20.56,8.56c-.06.04-.16-.03-.19.07,0,0-.02,0-.03,0,.03-.08-.11-.11-.06-.19.08.07.19.08.29.12Z"/>
  <path class="cls-16" d="M16.69,6.25c-.46.03-.85.21-1.18.51-.08.08-.16.12-.27.13-.87.1-1.44.66-1.54,1.51-.08.69.05,1.36.27,2.01.03.08.08.16.07.23-.02.08-.14.07-.21.11-.28.15-.46.38-.48.69-.02.26-.04.52.02.78.08.06.07.17.14.23.02.03.06.05.07.08.16.23.39.31.66.33.12,0,.18.06.22.16.05.13.11.26.16.4.24.4.49.8.89,1.07.17.12.27.26.27.47.01.37-.05.72-.25,1.04-.05.08-.11.11-.2.11-.24,0-.49,0-.73,0-.22,0-.43.03-.64.03-.29,0-.56.09-.83.17-.03,0-.05.01-.08.02-.14.04-.27.09-.39.16-.37.18-.71.39-1.01.66-.46.42-.82.92-1.04,1.5-.11.28-.18.56-.22.85,0,.07-.04.13-.08.19,0,.03,0,.06,0,.09-.03.06-.02.12-.02.18,0,.74,0,1.48,0,2.22,0,.12-.04.16-.16.16-2.75,0-5.5,0-8.24,0-.13,0-.16-.04-.16-.16,0-5.18,0-10.36,0-15.54,0-1.05,0-2.09,0-3.14,0-.08,0-.16.11-.17.03-.03.06-.02.1-.02.4,0,.79,0,1.19,0,.09,0,.13.02.13.11,0,.14,0,.28,0,.41,0,.04,0,.09.02.13.06.45.5.9,1,1.03.93.24,1.81-.4,1.83-1.34,0-.08,0-.16,0-.24,0-.06.02-.08.08-.09.02-.02.05-.01.07-.01.47,0,.95,0,1.42,0,.02,0,.05,0,.07.02.07.04.05.11.05.16-.01.32.04.63.22.91.33.51.99.76,1.59.59.62-.17,1.04-.69,1.05-1.3,0-.09,0-.17,0-.26,0-.06.02-.09.08-.11.02-.02.05-.02.07-.02.45,0,.89,0,1.34,0,.02,0,.05,0,.07.02.1,0,.15.05.15.15-.06.23,0,.45.07.66.38.95,1.56,1.22,2.33.53.3-.27.44-.61.45-1.01,0-.11-.03-.23.03-.34,0,0,.01-.01.02-.01.47,0,.94,0,1.41,0,.01,0,.02.01.03.02,0,.05.01.1.01.15,0,.86,0,1.73,0,2.59,0,.05,0,.1-.01.14Z"/>
  <path class="cls-15" d="M14.63,1.23c-.06-.21-.16-.39-.35-.52-.27-.18-.55-.21-.86-.09.01-.07.08-.12.17-.12.15.01.3.02.45,0,.1,0,.16.08.24.12.12.07.25.15.32.26.06.1.16.22.07.37-.03.02-.03-.01-.05-.02Z"/>
  <path class="cls-33" d="M14.63,1.23s.03.02.05.02c0,.11,0,.21,0,.32,0,.72,0,1.43,0,2.15,0,0-.02,0-.02,0,0-.04,0-.09,0-.13,0-.71,0-1.42,0-2.13,0-.06,0-.12-.02-.18,0-.02,0-.03,0-.05Z"/>
  <path class="cls-23" d="M12.19,3.36c-.49,0-.98,0-1.48,0-.02-.04.02-.03.03-.03.51,0,1.02,0,1.53,0-.03.04-.06.02-.08.03Z"/>
  <path class="cls-23" d="M10.66,1.71c.56,0,1.11,0,1.67,0-.04.03-.09.03-.14.03-.46,0-.92,0-1.38,0-.05,0-.1,0-.15-.03Z"/>
  <path class="cls-38" d="M7.73,3.36c-.52,0-1.04,0-1.56,0,.05-.03.11-.03.17-.03.45,0,.9,0,1.35,0,.03,0,.06-.01.08.02-.01,0-.02,0-.03.01Z"/>
  <path class="cls-15" d="M14.39.45c-.05,0-.1-.02-.11-.08,0-.04.03-.07.07-.07.06,0,.11.04.13.1,0,.04-.05.04-.08.05Z"/>
  <path class="cls-15" d="M14.22.26s-.02.06-.05.06c-.04,0-.07-.01-.06-.05,0-.03.01-.07.05-.07.04,0,.05.04.06.06Z"/>
  <path class="cls-34" d="M17.86,6.35c0-.49,0-.99,0-1.48,0-.85,0-1.69,0-2.54.03.05.02.11.02.17,0,.61,0,1.21,0,1.82,0,.62,0,1.24,0,1.86,0,.05,0,.1.02.14,0,.05-.02.03-.04.03Z"/>
  <path class="cls-37" d="M12.99,4.29c.1.13.23.2.39.23.03,0,.05,0,.05.04,0,.03-.03.05-.06.05-.07.01-.38-.2-.39-.26,0-.02,0-.04,0-.06h0Z"/>
  <path class="cls-2" d="M16.69,3.37c-.49,0-.97,0-1.46,0,.04-.03.09-.03.13-.03.41,0,.82,0,1.23,0,.03,0,.08-.02.1.03Z"/>
  <path class="cls-37" d="M12.88,4.53s0,.02,0,.02c-.06.02-.1-.03-.14-.05-.03-.01-.08-.03-.07-.08,0-.01.02-.03.03-.03.04-.01.19.11.19.15Z"/>
  <path class="cls-37" d="M12.98,4.29c-.09-.07-.05-.14,0-.21,0,0,0,0,0,0,0,.07.02.14,0,.2,0,0,0,0,0,0Z"/>
  <path class="cls-3" d="M3.76,3.88c.02.07.04.14.06.21,0,.02,0,.04-.02.05-.02,0-.04-.02-.04-.04,0-.07,0-.14-.01-.21,0,0,.01,0,.02,0Z"/>
  <path class="cls-21" d="M1.16,22.71s-.02-.09-.02-.13c0-6.44,0-12.87,0-19.31,0-.08-.01-.17.02-.25.03.04.03.09.03.14,0,.67,0,1.34,0,2.01,0,.03,0,.07.03.11.02-.17.19-.14.28-.23.04-.04.06.03.06.06.01.09.02.18.03.27,0,.07.03.13.08.18.02.04.01.09.01.13,0,1.04,0,2.08,0,3.13,0,.65,0,1.29,0,1.94-.04.06-.07.01-.08-.02-.02-.04-.02-.09-.02-.13,0-.25,0-.5,0-.75,0-.24-.05-.48-.05-.72,0-.08-.04-.1-.12-.05-.06.03-.1.09-.11.16,0,.04,0,.07-.01.11-.02.06-.04.07-.11.04,0-.59,0-1.18,0-1.77,0,.06,0,.12,0,.17.05,4.91.02,9.82.02,14.73,0,.07.03.15-.04.21Z"/>
  <path class="cls-14" d="M1.27,22.87s-.08-.07-.1-.12c.02-.1,0-.19,0-.29,0-.68,0-1.35,0-2.03.06-.16.14-.31.3-.4.04-.02.08-.05.13-.03.06.02.07.07.07.12,0,.04.01.08.01.12,0,.66,0,1.33,0,1.99,0,.04-.01.09.01.13.03,0,.05.02.08.03.06.03.12.02.19.02,1.57,0,3.14,0,4.71,0,0,.06-.04.07-.09.08-.06,0-.12,0-.18,0-.98,0-1.97,0-2.95,0-.16,0-.32.04-.48,0-.03,0-.07,0-.09.03-.1.12-.29.17-.3.36-.43-.01-.86.03-1.29-.02,0,0-.01,0-.02.02Z"/>
  <path class="cls-29" d="M1.69,22.36c-.03-.05-.02-.11-.02-.17,0-.66,0-1.33,0-1.99-.06-.22-.07-.45-.06-.67,0-.67,0-1.34,0-2.01,0-.09,0-.17-.01-.26.05-.33.04-.67.04-1-.04-1.72-.01-3.43-.02-5.15,0-.07,0-.15,0-.22,0-.05,0-.1.06-.13,0-.65,0-1.31,0-1.96,0-.02.01-.02.02,0,0,.92,0,1.84,0,2.76,0,3.6,0,7.2,0,10.8Z"/>
  <path class="cls-10" d="M1.69,8.8s-.01,0-.02,0c0-1.09,0-2.17,0-3.26,0-.65,0-1.3,0-1.95h.02s0,.05,0,.07c0,1.69,0,3.38,0,5.07,0,.02,0,.05,0,.07Z"/>
  <path class="cls-37" d="M2.22,1.74c-.6,0-1.2,0-1.8,0-.06,0-.12,0-.17-.02.37,0,.75,0,1.12,0,.59,0,1.17,0,1.76,0,0,0,0,.02,0,.03-.03.06-.07.05-.1,0h-.81Z"/>
  <path class="cls-28" d="M3.24,3.87c-.03-.12-.03-.25-.02-.38,0-.1-.04-.13-.14-.13-.42,0-.83,0-1.25,0,0,0,0,0-.01,0,0,0-.01,0-.02-.01.02-.02.05-.01.08-.01.41,0,.82,0,1.23,0,.11,0,.16.03.15.14-.01.13.02.27-.02.4Z"/>
  <path class="cls-12" d="M5.88.69c.04.12.15.22.13.36-.02,0-.06.02-.07,0-.03-.12-.09-.23-.07-.35Z"/>
  <path class="cls-26" d="M3.1,2.2s-.07,0-.06-.04c0-.05.04-.04.08-.04.03,0,.07,0,.07.04,0,.04-.05.04-.08.05Z"/>
  <path class="cls-26" d="M3.03,1.74s.07.02.1,0c.02.01.07,0,.07.03,0,.04-.05.04-.08.04-.05,0-.09-.02-.1-.07Z"/>
  <path class="cls-23" d="M12.64,17.07c-.46.28-.86.61-1.16,1.05-.38.54-.6,1.14-.61,1.79-.01,1.19,0,2.38,0,3.58-.03-.06-.02-.12-.02-.18,0-1.11,0-2.21,0-3.32,0-.08,0-.16-.03-.23-.05.02-.05.07-.08.11-.01-.05-.03-.1-.04-.15,0-.02-.02-.05-.05-.05-.03,0-.04.03-.04.05-.01.21-.12.41-.11.62,0,.12,0,.25-.06.36.02-.15-.01-.3-.02-.45,0-.18.01-.35-.05-.52-.01-.03-.03-.02-.05-.02.02-.42.13-.82.3-1.21.4-.91,1.06-1.59,1.98-2.03.01,0,.03-.01.05-.02.12,0,.22-.09.34-.09.02,0,.04-.04.06-.06l.06-.02c.21-.03.4-.11.61-.13.11-.01.2.01.27.09.07.08.06.16-.03.2-.14.07-.24.15-.3.3-.03.07-.09.1-.16.05-.12-.09-.25-.02-.35.02-.11.05-.23.09-.33.15-.06.03-.13.05-.16.11Z"/>
  <path class="cls-36" d="M2.58,22.87c-.02-.14,0-.27.17-.32.04,0,.08-.03.06-.09-.02-.04.02-.03.04-.04.03,0,.07,0,.1,0,1.18,0,2.36,0,3.53,0,.06,0,.13,0,.19-.02,1.19,0,2.37,0,3.56,0,0,0,0,.01,0,.02h-2.71c.14.03.29.06.45.05-.03.07-.09.06-.13.07-.16.03-.3.09-.45.16-.02.01-.05.02-.06.04-.06.14-.18.14-.29.12-.26-.04-.52,0-.78,0-.52,0-1.04,0-1.57,0-.63,0-1.25,0-1.88,0-.05-.05-.02-.09.02-.13.07-.06.11-.13.15-.16-.07.09-.2.17-.3.29-.03,0-.07,0-.1,0Z"/>
  <path class="cls-14" d="M2.68,22.87c-.03-.08,0-.14.08-.17.05-.02.09-.06.12-.1.05-.07.11-.12.2-.14.04,0,.08-.01.1.03.02.05-.03.06-.06.08-.13.08-.23.18-.31.31-.04,0-.08,0-.13,0Z"/>
  <path class="cls-7" d="M20.91,21.38c0-.15.06-.25.19-.28.14-.04.26.02.32.14-.03.11-.04.22-.03.33.02.25-.06.49-.06.74,0,.04-.02.08-.05.11-.1.1-.09.21-.04.33.05.13.04.15-.11.18-.07.01-.1.05-.1.11,0,.11-.02.22-.03.33,0,.07-.02.15-.13.12,0-.05.02-.1.03-.15.04-.1,0-.19,0-.29,0-.51-.01-1.02.01-1.53,0-.05.02-.1-.01-.14Z"/>
  <path class="cls-7" d="M21.45,21.27s.02.1.02.16c0,.63,0,1.26,0,1.89,0,.06,0,.11.01.17-.04-.04-.04-.09-.04-.14,0-.69,0-1.38,0-2.08Z"/>
  <path class="cls-7" d="M21.39,23.09c-.01-.07-.02-.15-.03-.22,0-.03,0-.06.04-.07.03,0,.03.03.03.06,0,.08,0,.16,0,.23-.01,0-.02,0-.03,0Z"/>
  <path class="cls-11" d="M.56,9.73c0,.28,0,.55,0,.83,0,1.52,0,3.05,0,4.57,0,.05,0,.11,0,.16,0,0-.02,0-.02,0-.03-.04-.03-.09-.02-.13.05-.64.02-1.29.02-1.93,0-.16-.02-.32-.02-.49.03-.06.02-.12.02-.18,0-.95,0-1.89,0-2.84,0-.02.02-.02.02,0Z"/>
  <path class="cls-27" d="M14.55,23.49c.13,0,.25,0,.38,0-.13.04-.25.04-.38,0Z"/>
  <path class="cls-35" d="M.56,9.73s-.02,0-.02,0c0-.63,0-1.26,0-1.89-.04-.11-.07-.23,0-.34,0-.3,0-.6,0-.91,0-.57,0-1.14,0-1.72,0-.03,0-.07,0-.1,0-.02.02-.02.02,0,0,.89,0,1.79,0,2.68,0,.76,0,1.52,0,2.27Z"/>
  <path class="cls-31" d="M.56,4.78s-.02,0-.02,0c0-.8,0-1.59,0-2.39,0-.04,0-.07,0-.11,0,0,0,0,0,0,0,0,0,0,.01,0,0,.83,0,1.67,0,2.5Z"/>
  <path class="cls-30" d="M.53,7.5c0,.11,0,.23,0,.34-.13-.16-.13-.24,0-.34Z"/>
  <path class="cls-18" d="M23.06,18.53c-.09-.08-.18-.16-.17-.3.04,0,.06.01.05.05,0,0,.01.02.02.03.04.07.07.15.11.22Z"/>
  <path class="cls-8" d="M14.55,10.3c.14-.05.29-.09.43-.14.02,0,.02-.01.02-.02.01-.02.03-.02.05-.02.07-.03.1,0,.13.05.03.05.04.11,0,.16-.09.09-.17.2-.27.27.09-.02.17-.08.28-.03.02.02.03.04.03.07-.02.07-.08.11-.15.14-.05.02-.1.04-.15.05-.24.07-.28.14-.27.38.05.71.19,1.41.54,2.05.03.16.02.33.05.49,0,.04.02.07.04.1.08.11.06.23.05.35,0,.07-.08.1-.13.05-.08-.07-.16-.13-.17-.24,0-.02,0-.04-.03-.05-.1-.03-.15-.12-.18-.2-.05-.11-.15-.2-.19-.32,0-.02-.02-.03-.05-.04-.08-.12-.14-.25-.19-.39-.03-.09-.08-.12-.18-.12-.29,0-.53-.12-.7-.35-.03-.02,0-.08-.05-.07-.06-.08-.1-.17-.1-.27.09-.02.15-.05.19-.15.03-.09.13-.17.23-.22.07-.04.13-.23.09-.29-.03-.05-.07.04-.1-.02.06-.05.08-.13.1-.21.01-.07.09-.13.17-.11.07.02.07.08.05.16-.02.11.01.22.03.34-.04-.18.1-.29.17-.41.03-.05.09-.1.16-.12.1-.02.17-.17.1-.25-.07-.07-.02-.11,0-.17.07-.12.19-.19.24-.31,0-.02.03-.03.04-.04.03-.02.09,0,.09-.05-.01-.05-.08-.03-.12-.04-.08-.02-.17.03-.25-.01Z"/>
  <path class="cls-15" d="M16.87,5.05c-.02-.15-.06-.3-.04-.45,0-.07.05-.1.12-.1.07,0,.07.07.05.1-.08.14-.1.29-.13.45Z"/>
  <path class="cls-8" d="M18.83,10.23c-.3.06-.59.05-.89.04-.41-.02-.82-.09-1.22-.18-.03,0-.06-.02-.09-.03.04-.15.18-.23.35-.22.14.01.28.02.41,0,.05,0,.1-.01.05-.09-.05-.09.03-.06.08-.06.18.02.37.03.55.05-.02.03-.05,0-.08.02.21.02.43-.02.64-.01.02,0,.04,0,.05-.03.1-.01.19-.03.29-.04.04.05.08.09.15.03.02-.02.08,0,.11.01.14.06.28.05.43.05.14,0,.23.1.19.23-.02.08.02.19-.09.23-.05-.09-.1-.17,0-.27.03-.03.02-.09-.03-.11-.06-.02-.12-.02-.16.04-.16.23-.45.29-.65.21q-.06-.02-.21.12s.08,0,.12,0Z"/>
  <path class="cls-17" d="M17.89,8.26c-.05,0-.11,0-.16-.02-.03-.06-.02-.11.04-.16.04-.03.08-.08.1-.12-.05.06-.11.13-.18.19-.09.07-.19.08-.29.04-.04-.02-.08-.02-.12-.01-.21.05-.43.04-.64.1-.05.01-.09-.02-.13,0-.14-.06-.21-.15-.2-.28.01-.13.09-.22.23-.25.12-.03.24-.05.37-.05.06.04.12.04.19.03.1-.01.21,0,.31,0,.07,0,.13.02.14.1,0,.02,0,.04.03.05.03,0,.04-.02.05-.05.02-.08.07-.08.15-.07.17,0,.33.04.51.06-.02.09-.11.13-.17.18-.1.08-.11.22-.23.27Z"/>
  <path class="cls-17" d="M16.97,7.7c.22-.03.45-.03.67,0-.22,0-.45,0-.67,0Z"/>
  <path class="cls-14" d="M18.37,7.16c.05,0,.09-.06.15-.03.03.02.05.02.04.07-.01.06-.05.03-.07.02-.04-.02-.08-.04-.12-.06h0Z"/>
  <path class="cls-14" d="M19.06,7.09c-.07.05-.11.05-.16,0-.02-.01-.03-.05,0-.05.06-.02.1.04.17.05Z"/>
  <path class="cls-14" d="M18.32,7.18s-.09-.05-.13-.07c.07-.03.16-.1.18.05h0s-.03.02-.05.02Z"/>
  <path class="cls-29" d="M17.94,15.03c-.5.19-1,.18-1.51.04-.15-.04-.15-.04-.16.1-.02.41-.13.8-.36,1.14-.04.07-.03.12,0,.18,0,.08,0,.16-.06.23-.04.05-.03.11-.03.17,0,.05,0,.1,0,.15-.02.08-.11.11-.17.06-.09-.08-.19-.16-.16-.3,0,0,0-.02,0-.01-.06.04-.09-.02-.13-.03-.05-.06-.12-.07-.19-.07-.27,0-.54,0-.82,0,.13.1.26.18.38.27.22.17.22.43-.01.6-.18.13-.36.25-.54.38-.13.1-.13.12.02.2.07.04.16.05.18.14,0,.09-.02.16-.11.21-.06.03-.06.1-.06.16,0,.07-.03.12-.1.13-.29-.15-.59-.29-.88-.45-.19-.1-.19-.34,0-.48.23-.17.46-.33.69-.49q.15-.11,0-.21c-.15-.11-.31-.21-.46-.32-.06-.04-.11-.05-.18-.03-.22.08-.43.17-.63.27,0-.08.06-.11.11-.13.06-.03.12-.03.14-.11,0-.02.05-.05.09,0,.03.06.08.02.09-.03.03-.09.08-.11.16-.06.03.01.07.03.08,0,.06-.11.12-.05.18-.01.07.04.12.01.13-.06.03-.14.13-.21.25-.26.04-.02.1-.03.1-.08,0-.05-.05-.07-.08-.1-.1-.07-.2-.07-.31-.05-.16.03-.31.11-.48.09.4-.14.82-.2,1.25-.21.31,0,.61,0,.92,0,.12,0,.18-.04.24-.14.21-.37.25-.76.19-1.18-.01-.07-.07-.1-.12-.14-.43-.33-.75-.73-.99-1.21.06-.1.06-.01.08.02.08.13.15.27.23.4.03.05.07.08.13.05.04-.02.08,0,.11.04.02.04.02.07-.02.1-.04.03-.05.07,0,.1.04.04.08.1.14.11.01,0,.02-.02.04-.03-.09-.07.04-.17-.02-.25,0,0,0-.03-.01-.03-.12-.14-.12-.31-.09-.47,0-.04-.01-.06-.03-.09-.03-.03-.03-.06,0-.08.21.34.45.65.77.89.6.45,1.26.57,1.98.29.08-.03.16-.05.22-.1.03.03.02.09.09.09.02,0,.03.01.03.03,0,.05-.13.21-.18.22-.06.01-.11.02-.17.03-.05,0-.07.04-.08.09-.01.04,0,.09.04.1.06.02.07.07.11.11Z"/>
  <path class="cls-34" d="M16.62,18.14c.04.08.07.16.11.24.01.07.03.15.06.22.01.04.04.06.07.08.09.2.19.41.28.62.06-.02.06-.07.07-.11.35-.81.71-1.63,1.06-2.45.02-.05.05-.1.07-.14.05.05.11.13.19.06.07-.06.06-.13,0-.21-.08-.1.1-.05.1-.12.1.02.16-.04.22-.11.05-.05.15-.03.19-.11.35,0,.7,0,1.05,0,.05,0,.15-.03.08.09-.02.04.01.07.04.09.06.04.07.1.06.16-.02.08-.09.05-.14.06-.12.03-.24.09-.37.06-.03,0-.06,0-.09,0-.07-.03-.18-.01-.2-.08-.03-.07.08-.1.12-.15.02-.02.04-.04.05-.07.01-.03.03-.06,0-.08-.02-.02-.05,0-.07,0-.07.03-.13.07-.19.12-.08.07-.17.13-.24.21-.03.04-.12.07-.17.02-.04-.03-.05-.07-.1-.02-.05.06-.03.09.03.11.07.06.06.14.03.21-.25.57-.49,1.14-.74,1.71-.1.22-.2.45-.28.69.13-.05.26-.1.38-.17.29-.17.6-.29.89-.46.03-.02.06-.03.1-.02.03.02.07.03.1.06.06.06.05.13-.01.16-.06.03-.09.06-.1.13,0,0,0,.02,0,.02-.14.06-.17.25-.33.3.2-.07.22-.07.21.06-.25.14-.51.27-.76.41-.05.07-.14.06-.2.1h0c-.1.12-.25.14-.38.2-.16.08-.32.16-.48.24-.09.05-.19.04-.28,0-.33-.17-.66-.34-.99-.52-.05-.1-.16-.11-.25-.13-.06,0-.1-.04-.15-.08-.02-.04,0-.06.03-.08.04-.04.06-.08.04-.13-.03-.09,0-.13.09-.17.06-.03.11-.07.17-.1.1,0,.17.06.25.09.08.06.15.12.25.13.01-.09-.05-.16-.1-.24-.05-.13-.1-.26-.16-.38-.02-.04-.04-.09-.02-.14.03-.06.07-.05.13-.03.14.07.25,0,.24-.15,0-.05,0-.11,0-.16,0-.04.04-.08.09-.06Z"/>
  <path class="cls-29" d="M18.03,15.34c-.03-.07-.02-.14-.02-.21,0-.04,0-.08-.05-.09.06-.05.07,0,.07.04,0,.09,0,.18,0,.27Z"/>
  <path class="cls-22" d="M19.25,18.65c.32-.17.64-.34.96-.52.05-.05.1-.09.09-.16.04-.06.11-.11.07-.2-.02-.04,0-.09.05-.11.02,0,.05-.03.05-.04-.05-.2.08-.1.16-.1.16.11.33.22.49.34.16.13.15.35-.02.45-.66.35-1.32.68-1.98,1.02-.05-.06-.15-.07-.16,0-.02.1-.09.06-.14.08-.03.01-.05-.03-.05-.06,0-.06.03-.1.09-.12.08-.03.14-.08.16-.17,0-.03.02-.06.05-.06.09-.02.12-.06.11-.15,0-.11.11-.05.17-.09-.03-.04-.06-.08-.09-.12Z"/>
  <path class="cls-34" d="M21.55,17.08c-.1-.05-.2-.1-.29-.16-.6-.6.2,0,.28-.09.02-.02.08-.02.1.02.03.04,0,.07-.03.09-.05.03,0,.1-.05.14Z"/>
  <path class="cls-19" d="M22.94,18.29s-.03-.03-.05-.05c0,0,0,0,0,0-.03-.03-.09-.05-.06-.11,0,0,.02,0,.02,0,.05.02.12-.06.14,0,.03.06,0,.12-.06.17Z"/>
  <path class="cls-18" d="M22.83,18.13s.04.08.06.11c-.13-.03-.21-.15-.2-.27.05.05.1.11.14.16Z"/>
  <path class="cls-18" d="M22.68,17.95s-.1.03-.1-.03c0-.06-.06-.09-.05-.14.06.04.11.11.15.17Z"/>
  <path class="cls-19" d="M23.16,18.03s-.02.04-.04.03c-.04,0-.07-.02-.07-.06,0-.02.01-.04.04-.03.03,0,.06.02.07.06Z"/>
  <path class="cls-35" d="M4.02,12.16c-.49-.08-.89-.53-.91-1.04-.01-.47-.01-.95,0-1.42.02-.62.53-1.08,1.2-1.09.4,0,.8,0,1.2,0,.12,0,.16-.03.16-.15,0-.44-.03-.89.01-1.33.05-.52.52-.97,1.06-.99.51-.02,1.02-.02,1.53,0,.55.02,1.04.47,1.07.98-.03.08,0,.17,0,.25,0,.32,0,.64,0,.97,0,.04.01.09-.04.12-.05.02-.08,0-.11-.03-.09-.06-.14-.05-.16.06-.02.1-.06.18-.12.25-.02.02-.04.04-.08.03-.03-.01-.03-.03-.04-.06,0-.04,0-.07,0-.11,0-.35,0-.71,0-1.06,0-.08-.01-.15-.06-.22-.03-.32-.22-.51-.54-.58-.05-.02-.1-.04-.16-.04-.4,0-.8-.01-1.19,0-.07,0-.11.03-.15.06-.28.11-.4.32-.39.61,0,.47,0,.93,0,1.4,0,.36-.11.47-.49.47-.5,0-.99,0-1.49,0-.27,0-.47.13-.54.36-.02.07-.03.14-.03.22,0,.37,0,.74,0,1.1,0,.25.05.45.26.61.07.17.23.14.36.13.26-.01.52,0,.78,0,.24.01.49.04.74.01.22-.02.27.05.26.21,0,.06-.01.11-.08.12-.08.01-.17.01-.22-.06-.06-.09-.14-.1-.23-.08-.04,0-.08.02-.07.07.01.05.06.04.1.03.03,0,.06-.02.09-.02.06,0,.12.01.14.07.03.06.02.11-.04.15-.05.03-.09.1-.16.04-.02-.01-.04-.02-.06-.02-.53-.01-1.07.02-1.6-.03Z"/>
  <path class="cls-32" d="M9.4,12.19s-.04.1-.04.15c0,.38,0,.76,0,1.14,0,.72-.5,1.21-1.24,1.21-.42,0-.83,0-1.25,0-.29,0-.56-.08-.79-.27.03-.1.1-.12.19-.05.09.08.29.08.38,0,.03-.02.01-.04,0-.06-.06-.07-.12-.13-.2-.16-.06-.02-.1-.06-.08-.12.02-.07.07-.08.14-.07.14.08.29.1.45.1.38,0,.76,0,1.14,0,.42,0,.63-.21.63-.62,0-.48,0-.96,0-1.43,0-.31.11-.42.44-.42.49,0,.98,0,1.46,0,.11,0,.22,0,.32-.06.2-.09.32-.24.33-.46,0-.44,0-.88,0-1.32,0-.19-.11-.33-.23-.46,0-.07.13-.23.2-.24.11-.02.15.06.19.14.01.02.02.05.04.06.09.06.1.14.04.21,0,.03.03.04.04.03.04-.02.12.05.13-.02.01-.07.04-.16-.05-.21-.07-.04-.1-.1-.12-.16-.03-.07-.02-.13.08-.13.22.2.31.46.32.75,0,.46.01.92,0,1.38-.01.58-.5,1.07-1.06,1.08-.3,0-.6,0-.9,0-.19,0-.37,0-.56,0Z"/>
  <path class="cls-15" d="M11.6,8.97c-.06.1-.03.15.08.21.05.03.11.1.09.15-.02.07,0,.13,0,.19,0,.04.01.08-.03.09-.04.02-.07,0-.09-.02-.03-.04-.06-.05-.11-.03-.05.03-.09.02-.11-.04-.02-.05-.04-.1.03-.13.04-.02.05-.05.01-.07-.06-.04-.1-.1-.12-.17-.01-.03-.04-.06-.07-.06-.04,0-.06.03-.06.07,0,.11-.11.04-.15.08-.03.04-.07.03-.12.02-.12-.04-.25-.03-.37-.03-.48,0-.96,0-1.44,0-.17,0-.31-.05-.38-.21-.01-.03-.03-.07-.03-.11,0-.51,0-1.02,0-1.53,0-.05,0-.1.06-.12.08.02.05.08.05.12,0,.4,0,.81,0,1.21,0,.04,0,.08,0,.13.09-.1.13-.2.12-.32,0-.06,0-.12.09-.13.07,0,.15-.02.17.07,0,.03.02.07.06.06.04-.01.03-.05.03-.09,0-.35,0-.69,0-1.04,0-.06,0-.11.02-.17.05.4.01.79.02,1.19,0,.31,0,.31.32.31.42,0,.84-.03,1.26.02.26.03.48.15.65.34Z"/>
  <path class="cls-11" d="M6.46,14s-.08.06-.01.08c.1.04.19.1.25.19.04.05.1.02.15.05,0,.05-.04.07-.08.09-.1.04-.21.08-.32.11-.08.02-.16.02-.2-.07-.04-.08-.09-.08-.16-.03-.3-.24-.42-.55-.42-.92,0-.38,0-.77,0-1.15,0-.11-.04-.15-.15-.15-.37,0-.74,0-1.11,0-.05,0-.11,0-.16-.01.04-.03.08-.01.12-.01.39,0,.78,0,1.17,0,.04,0,.08.01.12-.01.1.05.14-.03.16-.09.02-.06-.04-.08-.1-.06-.06.02-.12.04-.18.03-.06,0-.1-.03-.1-.1,0-.06.01-.12.08-.14.08-.02.17-.03.25-.03.06,0,.1.03.12.09.02.08.09.09.15.08.06,0,.04-.07.04-.11,0-.07-.01-.13-.1-.13-.14,0-.28,0-.41,0-.4,0-.8-.07-1.21,0-.09.01-.18,0-.28.02-.11.03-.09-.08-.1-.14.01,0,.03-.02.05-.02.63.07,1.26.01,1.89.03.01,0,.03,0,.04,0,.2,0,.33.13.34.32,0,.06,0,.12,0,.18,0,.43,0,.87,0,1.3,0,.18.02.36.14.51.02.03.05.06.02.1Z"/>
  <path class="cls-2" d="M5.66,12.16c-.05.03-.11.02-.17.02-.42,0-.83,0-1.25,0-.07,0-.15.02-.22-.03.09-.05.19,0,.28,0,.45,0,.91,0,1.36,0Z"/>
  <path class="cls-6" d="M9.4,12.19s.05-.03.08-.03c.42,0,.85,0,1.27,0,.04,0,.08,0,.11.02-.02,0-.05,0-.07,0-.2.02-.39,0-.59,0-.25,0-.51.01-.76,0-.01,0-.03,0-.04,0Z"/>
  <path class="cls-29" d="M13.03,16.3s.04.05.08.04c-.03.06-.09.07-.13.08-.1,0-.2-.02-.27.08-.02.03-.05-.02-.08-.04.13-.06.26-.13.4-.16Z"/>
  <path class="cls-32" d="M9.44,12.19c.45,0,.9,0,1.35,0-.14.03-.29.02-.44.01-.3,0-.61.02-.92-.01Z"/>
  <path class="cls-14" d="M13.46,12.49s0-.09,0-.14c.08.07.05.14.04.21-.02-.02-.03-.05-.05-.07Z"/>
  <path class="cls-29" d="M1.19,20.4c0,.73,0,1.46,0,2.18,0,.06,0,.11-.02.17,0-.01,0-.03,0-.04,0-.42,0-.84,0-1.26,0-4.61,0-9.22,0-13.83,0-.05,0-.1,0-.16,0,0,.02,0,.02,0v1.93c.05.03.06.08.06.13,0,.07,0,.15,0,.22,0,2.14,0,4.28,0,6.43,0,.23.02.46-.02.69-.01.08,0,.16.01.24.03.11.03.22.02.33-.01.09-.01.18-.01.27,0,.81,0,1.61,0,2.42,0,.1,0,.2-.06.28Z"/>
  <path class="cls-35" d="M1.19,17.43c0-2.68,0-5.36,0-8.04.07-.06.05-.13.05-.21,0-.08,0-.16.12-.17.04,0,.06-.04.08-.07.02-.04.05-.07.1-.05.05.01.06.06.06.1,0,.16,0,.32.03.48.05.39.02.77.03,1.16,0,.05,0,.1.02.14,0,2.17,0,4.33,0,6.5-.07,0-.08-.05-.09-.09-.03-.21-.07-.43-.04-.64.02-.15.03-.29-.02-.44-.03-.08,0-.17-.03-.27-.07.08-.06.15-.04.23.02.08.03.15.03.23,0,.11-.02.2-.12.26-.07.04-.08.12-.08.2,0,.19,0,.38,0,.56,0,.05.01.13-.08.13Z"/>
  <path class="cls-11" d="M1.19,17.43s.02-.1.02-.16c0-.19,0-.38,0-.58,0-.11,0-.2.14-.24.05-.01.06-.06.06-.11,0-.09,0-.18-.03-.27-.04-.11,0-.22.01-.33.01-.06.06-.08.11-.08.06,0,.08.05.08.1-.05.27.06.53.02.8-.04.23,0,.46.06.69,0,.98,0,1.96,0,2.94,0-.02-.02-.04-.02-.06-.03-.12-.05-.13-.15-.06-.08.06-.16.12-.19.22-.02.05-.06.07-.11.09,0-.99,0-1.98,0-2.97Z"/>
  <path class="cls-6" d="M15.95,19.12s-.03.04-.05.05c-.1.05-.17.12-.14.25.02.1-.07.12-.14.14-.51-.25-1.02-.51-1.52-.79.05-.07.04-.15.05-.22,0-.06.02-.11.09-.13.07-.02.02-.14.11-.13.06-.05.12,0,.17.02.33.16.64.33.96.5.12.07.26.12.38.2.04.03.1.05.09.12Z"/>
  <path class="cls-5" d="M20.91,21.38s.03.08.03.12c0,.62,0,1.24,0,1.86,0,.01,0,.02,0,.04-.03-.01-.02-.04-.02-.05,0-.06,0-.12,0-.18-.02-.08,0-.17,0-.26,0-.4,0-.8,0-1.2,0-.04,0-.09,0-.13-.01-.06-.01-.13,0-.19Z"/>
  <path class="cls-7" d="M20.91,21.56c0,.53,0,1.06,0,1.59-.03-.25-.01-.5-.01-.75,0-.28-.02-.56.01-.84Z"/>
  <path class="cls-6" d="M15.76,19.64s.06-.05.09-.08c.02-.02.06-.03.06-.02-.03.1.16.12.1.23-.08-.04-.17-.09-.25-.13Z"/>
  <path class="cls-13" d="M17.76,20.05c.12-.07.25-.14.38-.2.04.04.01.05-.02.07-.11.07-.23.12-.36.12Z"/>
  <path class="cls-13" d="M18.14,19.86c.06-.05.13-.08.2-.1-.02.12-.13.07-.2.1Z"/>
  <path class="cls-8" d="M17.52,9.68s-.02,0-.02,0c-.02,0-.02.01,0,.02.04.02.09.04.14.07-.08.1-.2.12-.31.13-.11,0-.23,0-.34,0-.08,0-.2-.05-.2.11,0,.06-.11-.01-.15.04-.03,0-.05-.01-.08-.02-.06-.04-.12-.07-.19-.07-.08,0-.12-.04-.15-.11-.01-.07-.05-.05-.08-.02-.02.03-.06.03-.08.06-.07.1-.13.19-.2.29-.13.05-.22.16-.34.22-.04.02-.06.06-.1.06-.02,0-.05,0-.06.03-.05.11-.12.09-.2.04-.04-.07-.01-.12.04-.16.05-.04.1-.09.1-.16,0-.06.05-.08.1-.09.12-.03.22-.1.28-.21.03-.05.07-.09.12-.12.13-.08.24-.19.33-.31.04-.05.08-.09.15-.09,0,0,.02.01.02.02.15.11.34.09.5.13.09.05.19.04.29.07.1.08.21.05.32.05l.11.02Z"/>
  <path class="cls-14" d="M16.27,9.39c-.09.13-.21.24-.32.36-.03.03-.06.05-.1.07-.06.03-.12.07-.15.14-.02.04-.06.07-.1.11-.07.08-.22.06-.25.12-.04.08-.05.17-.14.22-.04.02-.05.06-.06.1.02.02.02.05,0,.07-.09.05-.22.03-.28.14-.01.02-.07,0-.09-.02-.02-.03-.03-.07,0-.09.11-.06.16-.19.27-.25.11-.07.11-.1,0-.25.27-.17.48-.38.57-.69.05-.14.18-.2.34-.16.1.03.2.07.31.11Z"/>
  <path class="cls-8" d="M16.5,8.29c.14-.02.27-.05.41-.07.11-.02.21-.04.32-.07.08-.02.16-.08.23.03.03.04.1.01.15-.02.12-.08.22-.2.33-.29.02-.02.04-.05.07-.03.03.03,0,.06-.02.08-.06.05-.11.1-.15.16-.03.05-.13.07-.05.15-.02,0-.04,0-.06.01-.38,0-.75-.03-1.12.07-.04.01-.07,0-.11-.02Z"/>
  <path class="cls-29" d="M18.69,9.71s.04,0,.06,0c-.28.06-.57.06-.85.02.06,0,.12,0,.18,0,.21,0,.41-.02.62-.02Z"/>
  <path class="cls-8" d="M16.8,9.54c-.17-.03-.38.07-.5-.13.17.02.34.07.5.13Z"/>
  <path class="cls-8" d="M17.4,9.66c-.12.03-.24.07-.34-.04,0,0,0,0,0,0,0,0,0,0,.01,0,.11.02.21.04.32.05Z"/>
  <path class="cls-14" d="M15,10.15s.01.04.02.06c0,.03,0,.06-.03.07,0,0-.03,0-.03,0-.02-.03,0-.05,0-.08,0-.01.01-.02.02-.03,0,0,.01-.01.02-.02Z"/>
  <path class="cls-8" d="M15.16,10.59v-.07c.06,0,.11.01.13-.07.01-.05.06-.04.09-.03.05.04.05.09.02.14-.08.02-.13.1-.23.08,0-.02-.02-.03-.03-.05Z"/>
  <path class="cls-14" d="M13.8,12.24c-.12-.08-.13-.12-.05-.2.02-.02.03-.05.06-.03.02.01.02.04.02.07,0,.03-.02.05-.02.08,0,.02,0,.05-.01.08Z"/>
  <path class="cls-14" d="M15.41,10.56s-.05-.09-.02-.14c.09-.13.26-.15.35-.29.05-.08.07.03.11.04-.1.18-.26.29-.43.39Z"/>
  <path class="cls-8" d="M16.24,9.83c.04.06.1.1.18.11.05,0,.1.03.12.09-.17-.03-.34-.08-.5-.15,0-.03.02-.06.05-.08.06-.02.11-.06.15.02Z"/>
  <path class="cls-29" d="M19.38,9.93c-.09.1-.23.12-.33.07-.02-.01-.03-.03-.03-.05,0-.03.03-.03.06-.04.04,0,.22,0,.3.02Z"/>
  <path class="cls-6" d="M16.62,18.14c-.05.07-.03.14-.03.21,0,.14-.03.21-.16.26-.02,0-.04.01-.06.03-.07.09-.1.07-.1-.03,0-.04-.02-.08-.08-.07-.07.02-.09-.03-.11-.08-.23-.53-.47-1.07-.69-1.6-.02-.05-.04-.09.02-.13.16.07.05-.09.11-.12.06.08.02.17.03.25,0,.11.11.13.16.2.01.02.05,0,.06-.02,0-.01.01-.03,0-.05-.03-.19.02-.35.15-.5.24.54.49,1.09.71,1.64Z"/>
  <path class="cls-6" d="M16.85,18.68c-.08.04-.13.06-.12-.06,0-.08-.04-.16,0-.23.06.09.09.19.13.3Z"/>
  <path class="cls-36" d="M8.23,6.67c-.4,0-.79,0-1.19,0-.12,0-.24,0-.36.02,0-.09.08-.05.11-.05.39,0,.78,0,1.17,0,.11,0,.22,0,.33,0-.02.03-.04.02-.06.03Z"/>
  <path class="cls-9" d="M6.86,14.15h1.24c-.41.01-.83.01-1.24.01h0Z"/>
  <path class="cls-14" d="M16.24,9.83c-.05,0-.1-.02-.15-.02.01-.02.02-.03.04-.05.04-.03.08-.08.12-.06.05.03,0,.08-.01.13Z"/>
</svg>