<?xml version="1.0" encoding="utf-8"?>
<!-- Generator: Adobe Illustrator 28.3.0, SVG Export Plug-In . SVG Version: 6.00 Build 0)  -->
<svg version="1.1" id="Capa_1" xmlns="http://www.w3.org/2000/svg" xmlns:xlink="http://www.w3.org/1999/xlink" x="0px" y="0px"
	 viewBox="0 0 24 24" style="enable-background:new 0 0 24 24;" xml:space="preserve">
<style type="text/css">
	.st0{clip-path:url(#SVGID_00000171681353029170906840000014023809954251397016_);fill:#023F6D;}
</style>
<g>
	<defs>
		<rect id="SVGID_1_" x="1.9" width="20.1" height="24"/>
	</defs>
	<clipPath id="SVGID_00000145058715915805040710000010130527332183094425_">
		<use xlink:href="#SVGID_1_"  style="overflow:visible;"/>
	</clipPath>
	<polygon style="clip-path:url(#SVGID_00000145058715915805040710000010130527332183094425_);fill:#023F6D;" points="1.9,18 2.6,18 
		2.6,24 4.6,24 4.6,18 6,18 6,24 8,24 8,18 9.3,18 7.3,12.7 7.3,11.3 8.6,13.3 10,12.7 10.7,14 10.7,24 12.7,24 12.7,16 14,18 
		14,24 16,24 16,17.3 14.7,13.3 15.4,10 16,12 21.4,12 21.4,10 17.4,10 16.7,6.7 14,4.7 12.7,5.3 10,10.7 9.3,11.3 8,8 6,6.7 
		4.6,7.3 2.6,11.3 	"/>
	
		<ellipse style="clip-path:url(#SVGID_00000145058715915805040710000010130527332183094425_);fill:#023F6D;" cx="9" cy="5.7" rx="2.3" ry="2.3"/>
	<path style="clip-path:url(#SVGID_00000145058715915805040710000010130527332183094425_);fill:#023F6D;" d="M6.3,3.3
		c-0.6,0-1,0.4-1,1c0,0.6,0.5,1,1,1c0.1,0,0.1,0,0.2,0c0.1-0.6,0.3-1.1,0.7-1.5C7,3.6,6.7,3.3,6.3,3.3z"/>
	<path style="clip-path:url(#SVGID_00000145058715915805040710000010130527332183094425_);fill:#023F6D;" d="M21.4,24h0.7V13.3
		c0-2.7-3.4-2.7-3.4,0h0.7c0-2,2-2,2,0V24z"/>
	
		<ellipse style="clip-path:url(#SVGID_00000145058715915805040710000010130527332183094425_);fill:#023F6D;" cx="17.4" cy="3.3" rx="2.7" ry="2.7"/>
	<polygon style="clip-path:url(#SVGID_00000145058715915805040710000010130527332183094425_);fill:#023F6D;" points="14,2 20.7,2 
		19.4,1.3 18.7,0 16,0 15.4,1.3 	"/>
</g>
</svg>
