<?xml version="1.0" encoding="utf-8"?>
<!-- Generator: Adobe Illustrator 28.3.0, SVG Export Plug-In . SVG Version: 6.00 Build 0)  -->
<svg version="1.1" id="Capa_1" xmlns="http://www.w3.org/2000/svg" xmlns:xlink="http://www.w3.org/1999/xlink" x="0px" y="0px"
	 viewBox="0 0 24 24" style="enable-background:new 0 0 24 24;" xml:space="preserve">
<style type="text/css">
	.st0{fill:none;}
	.st1{fill-rule:evenodd;clip-rule:evenodd;fill:none;}
</style>
<path d="M17.3,17.2c0.3-0.1,0.5-0.2,0.7-0.2c0.5-0.2,1-0.3,1.5-0.5c0.6-0.2,1.3-0.4,1.9-0.6c0.5-0.2,1-0.1,1.4,0.2
	c0.7,0.5,0.9,1.5,0.5,2.2c-0.2,0.3-0.4,0.5-0.8,0.7c-0.3,0.1-0.5,0.2-0.8,0.4c-0.7,0.3-1.5,0.7-2.2,1c-0.7,0.3-1.4,0.7-2.2,1
	c-0.7,0.3-1.4,0.7-2.1,1c-0.7,0.3-1.4,0.6-2.1,1c-0.4,0.2-0.8,0.4-1.3,0.5c-0.7,0.1-1.4,0-2-0.2C9,23.3,8.3,23,7.6,22.7
	c-0.2-0.1-0.4-0.2-0.5-0.3c-0.2-0.1-0.3-0.3-0.2-0.5c0.1-0.2,0.3-0.3,0.5-0.2c0.6,0.2,1.1,0.5,1.7,0.7c0.4,0.2,0.7,0.4,1.1,0.5
	c0.8,0.3,1.6,0.2,2.4-0.2c0.8-0.4,1.7-0.8,2.5-1.2c0.7-0.3,1.5-0.7,2.2-1c0.7-0.3,1.4-0.7,2.1-1c0.7-0.3,1.4-0.7,2.1-1
	c0.2-0.1,0.5-0.2,0.7-0.4c0.4-0.2,0.5-0.6,0.3-1c-0.2-0.4-0.5-0.6-0.9-0.5c-0.8,0.2-1.5,0.5-2.3,0.7c-0.8,0.2-1.5,0.5-2.3,0.7
	c-0.1,0-0.3,0.1-0.4,0.2c-0.3,0.3-0.7,0.5-1.1,0.5c-0.8,0-1.6,0-2.4,0c-0.9,0-1.9,0-2.8,0c-0.2,0-0.4-0.1-0.4-0.3
	c0-0.2,0.1-0.4,0.3-0.5c0.1,0,0.1,0,0.2,0c1.6,0,3.3,0,4.9,0c0.1,0,0.3,0,0.4,0c0.6-0.2,0.9-0.8,0.6-1.4c-0.2-0.4-0.5-0.6-1-0.6
	c-1.2,0-2.4,0-3.6,0c-0.6,0-1.1-0.2-1.5-0.6c-1.2-0.9-2.5-1.2-3.9-0.6C6,15,5.6,15.2,5.2,15.4c-0.4,0.2-0.9,0.4-1.3,0.5
	c-0.1,0-0.3,0-0.4,0c-0.9,0-1.7,0-2.6,0c-0.3,0-0.4-0.1-0.4-0.3c0-0.3,0.1-0.5,0.4-0.5c0.2,0,0.4,0,0.6,0c0.6,0,1.1,0,1.7,0
	c0.7,0,1.3-0.2,1.9-0.5c0.5-0.3,0.9-0.5,1.5-0.7c1.3-0.4,2.5-0.2,3.6,0.5c0.2,0.2,0.5,0.3,0.7,0.5c0.3,0.2,0.6,0.3,1,0.3
	c1.2,0,2.3,0,3.5,0c0.3,0,0.5,0,0.8,0.2C16.8,15.7,17.3,16.3,17.3,17.2z"/>
<path d="M20,7.7c0,0.8,0,1.5,0,2.3c0,0.4-0.2,0.5-0.5,0.5c-1.4,0-2.8,0-4.2,0c-0.1,0-0.3,0-0.4,0c-0.2,0-0.3-0.2-0.3-0.4
	c0-0.2,0-0.4,0-0.6c0-1.4,0-2.7,0-4.1c0-0.4,0.1-0.5,0.5-0.5c1.5,0,2.9,0,4.4,0C19.9,4.9,20,5,20,5.4C20,6.2,20,6.9,20,7.7z
	 M17.7,9.6c0.5,0,1,0,1.5,0c0-0.5,0-1,0-1.5c-0.5,0-1,0-1.5,0C17.7,8.6,17.7,9.1,17.7,9.6z M16.9,9.6c0-0.5,0-1,0-1.5
	c-0.5,0-1,0-1.5,0c0,0.5,0,1,0,1.5C15.9,9.6,16.4,9.6,16.9,9.6z M15.4,5.7c0,0.5,0,1,0,1.5c0.5,0,1,0,1.5,0c0-0.1,0-0.1,0-0.1
	c0-0.4,0-0.8,0-1.2c0-0.1,0-0.2-0.2-0.2c-0.4,0-0.8,0-1.2,0C15.5,5.7,15.5,5.7,15.4,5.7z M19.2,5.8C19.2,5.7,19.2,5.7,19.2,5.8
	c-0.5,0-0.9,0-1.4,0c-0.1,0-0.1,0.1-0.1,0.1c0,0.4,0,0.9,0,1.3c0,0,0,0.1,0,0.1c0.5,0,1,0,1.5,0C19.2,6.7,19.2,6.3,19.2,5.8z"/>
<path d="M12.1,4.2c-0.1,0.1-0.2,0.1-0.3,0.2c-0.2,0.1-0.5,0.1-0.6-0.1c-0.1-0.2-0.1-0.4,0.2-0.6c0.6-0.4,1.2-0.7,1.7-1.1
	c0.6-0.3,1.1-0.7,1.7-1c0.5-0.3,1-0.6,1.6-1c0.2-0.2,0.5-0.3,0.7-0.5c0.2-0.1,0.3-0.1,0.5,0C18.3,0.6,19,1,19.7,1.5
	c0.5,0.3,1,0.6,1.4,0.9c0.6,0.4,1.2,0.7,1.8,1.1c0.1,0.1,0.2,0.2,0.3,0.2c0.2,0.1,0.2,0.3,0.1,0.5c-0.1,0.2-0.3,0.2-0.5,0.2
	c-0.1-0.1-0.2-0.1-0.4-0.2c0,0.1,0,0.1,0,0.2c0,1.9,0,3.8,0,5.6c0,0.1,0,0.3-0.1,0.4c-0.1,0.1-0.3,0.2-0.4,0.1
	c-0.1-0.1-0.3-0.2-0.3-0.4c0-0.1,0-0.1,0-0.2c0-2,0-4,0-6.1c0-0.2,0-0.2-0.2-0.3c-0.6-0.3-1.1-0.7-1.7-1c-0.5-0.3-1.1-0.6-1.6-1
	C18,1.4,17.7,1.2,17.4,1c0,0-0.1,0-0.2,0c-0.8,0.5-1.6,0.9-2.3,1.4c-0.5,0.3-1,0.6-1.5,0.9c-0.1,0.1-0.3,0.2-0.4,0.3
	c0,0-0.1,0.1-0.1,0.2c0,0.5,0,1,0,1.6c0,0.3-0.1,0.4-0.4,0.4c-0.2,0-0.4-0.2-0.4-0.4c0-0.3,0-0.7,0-1C12.1,4.3,12.1,4.3,12.1,4.2z"
	/>
<path d="M12.1,11.8c0-0.1,0-0.1,0-0.2c0-1.4,0-2.7,0-4.1c0-0.3,0.3-0.5,0.6-0.4c0.2,0.1,0.2,0.2,0.2,0.4c0,0.4,0,0.8,0,1.2
	c0,1,0,2,0,3c0,0.1,0,0.1,0,0.2c0.1,0,0.1,0,0.2,0c3.3,0,6.6,0,9.9,0c0.3,0,0.4,0.1,0.5,0.3c0.1,0.3-0.1,0.5-0.4,0.5
	c-0.6,0-1.3,0-1.9,0c-1.3,0-2.6,0-3.9,0c-1.2,0-2.4,0-3.6,0c-0.7,0-1.3,0-2,0c-0.2,0-0.4,0-0.5-0.3c-0.1-0.3,0.1-0.6,0.4-0.6
	C11.7,11.8,11.9,11.8,12.1,11.8z"/>
<path d="M2.4,20.2c0.4,0,0.9,0,1.3,0c0.4,0,0.8,0.1,1.2,0.3c0.2,0.1,0.5,0.2,0.7,0.3c0.2,0.1,0.2,0.2,0.2,0.4c0,0.2-0.2,0.4-0.3,0.4
	c-0.1,0-0.3-0.1-0.4-0.1c-0.4-0.2-0.9-0.4-1.4-0.4c-0.9,0-1.8,0-2.8,0c-0.2,0-0.3-0.1-0.4-0.2c-0.1-0.2-0.1-0.3,0-0.5
	c0.1-0.1,0.2-0.2,0.3-0.2C1.4,20.2,1.9,20.2,2.4,20.2C2.4,20.2,2.4,20.2,2.4,20.2z"/>
<rect x="0.2" y="0" class="st0" width="23.5" height="24"/>
<rect x="0.2" y="0" class="st1" width="23.5" height="24"/>
</svg>
